<svg width="176" height="54" viewBox="0 0 176 54" fill="none" xmlns="http://www.w3.org/2000/svg">
<path d="M58.2631 12.3761V15.2043H55.7739V12.3761H58.2631ZM58.2631 19.7294V36.8794H55.7739V19.718L58.2631 19.7294Z" fill="white"/>
<path d="M62.6172 19.718H65.1205L65.0673 22.303L65.1205 22.3567C66.0818 20.4298 67.9298 19.4663 70.6645 19.4663C73.5467 19.4663 75.2948 20.4298 75.9089 22.3567H75.9789C77.0467 20.4298 78.9964 19.4663 81.8282 19.4663C85.8322 19.4663 87.8342 21.5309 87.8342 25.66V36.8794H85.3478V25.4281C85.3478 23.9179 85.0678 22.8827 84.547 22.3567C84.0262 21.8307 83.007 21.5478 81.5258 21.5478C79.5564 21.5478 78.2236 21.9249 77.5273 22.6791C76.8311 23.4333 76.4764 24.8578 76.4633 26.9525V36.8794H73.9741V25.66L73.9405 24.871C73.9405 22.6555 72.6898 21.5478 70.1885 21.5478C66.8098 21.5478 65.1205 23.4097 65.1205 27.1335V36.8794H62.6312L62.6172 19.718Z" fill="white"/>
<path d="M92.6727 19.718H95.1619L95.1087 22.303L95.1619 22.3567C96.1232 20.4298 97.9712 19.4663 100.706 19.4663C103.588 19.4663 105.336 20.4298 105.95 22.3567H106.02C107.088 20.4298 109.042 19.4663 111.881 19.4663C115.885 19.4663 117.887 21.5309 117.887 25.66V36.8794H115.398V25.4281C115.398 23.9179 115.132 22.8827 114.6 22.3567C114.068 21.8307 113.06 21.5478 111.578 21.5478C109.611 21.5478 108.277 21.9249 107.577 22.6791C106.877 23.4333 106.524 24.8578 106.519 26.9525V36.8794H104.041V25.66L104.007 24.871C104.007 22.6555 102.756 21.5478 100.255 21.5478C96.8671 21.5478 95.1731 23.4097 95.1731 27.1335V36.8794H92.6727V19.718Z" fill="white"/>
<path d="M136.591 19.718V36.8794H134.104L134.281 34.6366L134.228 34.5829C133.363 36.2798 131.514 37.1283 128.681 37.1283C124.714 37.1283 122.73 35.1297 122.728 31.1325V19.718H125.217V31.1354C125.217 32.6909 125.472 33.7279 125.982 34.2464C126.491 34.7648 127.492 35.0279 128.983 35.0354C130.941 35.0354 132.284 34.6432 133.01 33.8589C133.736 33.0745 134.101 31.6359 134.104 29.5431V19.718H136.591Z" fill="white"/>
<path d="M141.194 19.7181H143.594L143.521 22.0598L143.591 22.1135C144.351 20.3544 146.235 19.4749 149.244 19.4749C151.671 19.4749 153.315 19.9057 154.175 20.7673C155.036 21.629 155.465 23.2806 155.463 25.7223V36.8794H152.977V25.2839C152.977 23.8095 152.697 22.8187 152.137 22.3115C151.577 21.8043 150.505 21.5498 148.922 21.5479C145.426 21.5479 143.678 23.2175 143.678 26.5566V36.8794H141.189L141.194 19.7181Z" fill="white"/>
<path d="M171.784 31.6925H174.321L174.341 32.3204C174.341 34.1059 173.804 35.3541 172.731 36.0649C171.658 36.7757 169.777 37.1311 167.089 37.1311C163.962 37.1311 161.909 36.5541 160.929 35.4003C159.949 34.2464 159.466 31.8198 159.481 28.1205C159.481 24.6947 159.973 22.3963 160.957 21.2254C161.941 20.0546 163.865 19.4682 166.73 19.4663C169.861 19.4663 171.914 19.9754 172.89 20.9935C173.867 22.0117 174.344 24.1583 174.321 27.4333V28.7795H162.096C162.096 31.487 162.384 33.2103 162.959 33.9494C163.534 34.6885 164.876 35.0599 166.985 35.0637C168.988 35.0637 170.288 34.8874 170.886 34.5348C171.483 34.1823 171.783 33.4186 171.784 32.244V31.6925ZM171.784 26.8083L171.765 26.0022C171.765 24.1469 171.463 22.9412 170.86 22.385C170.258 21.8288 168.951 21.546 166.94 21.5365C164.928 21.5365 163.621 21.8627 163.02 22.5151C162.419 23.1674 162.121 24.5947 162.124 26.7969L171.784 26.8083Z" fill="white"/>
<path d="M128.258 47.6943C128.289 48.2034 128.289 48.5626 128.289 49.4167C128.289 51.1277 128.14 51.7414 127.606 52.2958C127.012 52.9264 126.225 53.0905 123.881 53.0905C122.532 53.0905 121.921 53.0141 121.345 52.7765C120.068 52.2364 119.637 51.2776 119.637 48.9698C119.637 46.3453 119.667 45.7598 119.861 45.0273C119.968 44.561 120.201 44.1336 120.533 43.7923C120.866 43.451 121.285 43.209 121.745 43.0929C122.204 42.9571 122.865 42.9119 124.103 42.9119C126.135 42.9119 126.64 42.9882 127.309 43.3927C127.978 43.7971 128.23 44.5013 128.258 46.0002H126.343C126.284 44.6682 126.063 44.5183 123.999 44.5183C122.574 44.5183 122.07 44.6823 121.804 45.2366C121.611 45.6552 121.566 46.1218 121.566 47.9347C121.566 49.8239 121.611 50.3783 121.79 50.7629C122.042 51.3285 122.591 51.4841 124.133 51.4841C125.217 51.4841 125.766 51.3794 126.018 51.1249C126.27 50.8704 126.404 50.3302 126.404 49.5213C126.404 49.4761 126.388 49.2951 126.373 49.1141H123.895V47.7L128.258 47.6943Z" fill="white"/>
<path d="M139.73 43.0025V49.6572C139.73 50.8874 139.581 51.5605 139.212 52.0555C138.883 52.4723 138.429 52.7701 137.918 52.9039C137.534 53.0255 136.762 53.0849 135.619 53.0849C134.166 53.0849 133.497 53.0086 132.92 52.754C131.85 52.2902 131.52 51.5718 131.52 49.7562V42.9968H133.418V49.776C133.418 51.2296 133.715 51.4559 135.644 51.4559C137.574 51.4559 137.842 51.2466 137.842 49.7024V43.0025H139.73Z" fill="white"/>
<path d="M144.896 51.0825L144.285 53H142.297L145.593 43.0024H148.393L151.753 53H149.81L149.171 51.0825H144.896ZM147.032 44.4731L145.352 49.6571H148.749L147.032 44.4731Z" fill="white"/>
<path d="M154.542 43.0024H159.408C161.797 43.0024 162.614 43.7519 162.614 45.9862C162.614 47.98 162.273 48.5315 160.833 48.8143V48.8907C161.953 48.9501 162.513 49.6232 162.513 50.8393V53.0114H160.601V51.19C160.629 50.0955 160.17 49.6317 159.117 49.6628H156.446V53H154.547L154.542 43.0024ZM159.097 48.0394C159.691 48.0394 160.075 47.9489 160.299 47.7396C160.609 47.4851 160.685 47.174 160.685 46.3255C160.685 44.9115 160.447 44.6456 159.229 44.6456H156.429V48.0394H159.097Z" fill="white"/>
<path d="M165.921 43.0024H170.802C172.168 43.0024 173.028 43.2853 173.602 43.8509C174.313 44.5862 174.551 45.4403 174.551 47.1797C174.551 49.8777 174.461 50.7007 174.134 51.4049C173.574 52.4995 172.591 52.9944 170.869 52.9944H165.921V43.0024ZM170.491 51.3512C171.395 51.3512 171.891 51.173 172.196 50.7516C172.501 50.3302 172.613 49.6882 172.613 47.98C172.613 46.2718 172.538 45.6722 172.227 45.2367C171.916 44.8012 171.485 44.6711 170.608 44.6711H167.808V51.354L170.491 51.3512Z" fill="white"/>
<path fill-rule="evenodd" clip-rule="evenodd" d="M25.389 3.93995C26.2511 3.60291 27.1862 3.5022 28.0995 3.6482C29.0129 3.79422 29.8713 4.18175 30.5878 4.771C30.5881 4.77124 30.5884 4.77148 30.5887 4.77172L45.8489 17.2724C46.5616 17.859 47.1088 18.6239 47.4363 19.4905C47.7638 20.3571 47.8601 21.2951 47.7158 22.2108L44.6091 41.8584C44.6088 41.86 44.6085 41.8617 44.6083 41.8634C44.4688 42.7806 44.0912 43.6446 43.5135 44.3674C42.9353 45.0908 42.1772 45.6468 41.3162 45.9785C41.3154 45.9789 41.3146 45.9792 41.3138 45.9795L22.9247 53.132C22.9244 53.1321 22.9241 53.1323 22.9238 53.1324C22.0616 53.4696 21.1262 53.5704 20.2128 53.4244C19.2997 53.2784 18.4416 52.8911 17.7253 52.3023C17.7247 52.3018 17.7241 52.3013 17.7235 52.3009L2.46866 39.8046C2.46802 39.8041 2.46739 39.8036 2.46676 39.8031C1.75593 39.2237 1.20711 38.4678 0.873896 37.6099C0.540394 36.7512 0.434259 35.8198 0.56582 34.9073L0.567117 34.8983L3.67517 15.2425C3.67541 15.2409 3.67566 15.2392 3.6759 15.2376C3.81541 14.3203 4.193 13.4563 4.77072 12.7335C5.34882 12.0103 6.10672 11.4542 6.96749 11.1225C6.96848 11.1221 6.96947 11.1217 6.97045 11.1214L25.3875 3.94055C25.3879 3.94038 25.3886 3.94011 25.389 3.93995C25.3889 3.93999 25.3891 3.93992 25.389 3.93995ZM27.6869 6.26542C27.2334 6.19294 26.769 6.24297 26.3407 6.41058L7.90954 13.5969C7.48356 13.7608 7.10774 14.036 6.82074 14.3951C6.53371 14.7542 6.34586 15.1842 6.27679 15.6412L6.27611 15.6457L3.16894 35.2961C3.10467 35.7517 3.15835 36.2163 3.32469 36.6446C3.492 37.0754 3.7674 37.4542 4.12328 37.744L4.12629 37.7464L19.3886 50.2488C19.7452 50.5422 20.1719 50.7347 20.6254 50.8072C21.0788 50.8796 21.5432 50.8296 21.9715 50.662L40.3701 43.5057L40.3747 43.504C40.8007 43.3401 41.1765 43.0648 41.4635 42.7058C41.7505 42.3467 41.9384 41.9167 42.0074 41.4597L42.0081 41.4552L45.1167 21.7956C45.189 21.3367 45.1407 20.8668 44.9768 20.433C44.813 19.9994 44.5395 19.6174 44.1843 19.3248C44.1841 19.3246 44.1838 19.3244 44.1836 19.3242L28.9258 6.82563L28.9236 6.82381C28.567 6.53042 28.1403 6.33791 27.6869 6.26542Z" fill="white"/>
<path fill-rule="evenodd" clip-rule="evenodd" d="M50.6163 3.59177L46.7523 0.197958C46.649 0.100639 46.52 0.0355256 46.3809 0.0104406C46.2419 -0.0146444 46.0986 0.00136652 45.9683 0.0565496L41.1802 1.72517C41.046 1.76499 40.9252 1.84154 40.8313 1.94636C40.7374 2.05117 40.6741 2.18017 40.6482 2.31909L39.6962 7.35324C39.6724 7.49165 39.6829 7.63387 39.7269 7.76715C39.7709 7.90043 39.8469 8.02059 39.9482 8.11685L43.8123 11.5107C43.9156 11.608 44.0445 11.6731 44.1836 11.6982C44.3227 11.7233 44.466 11.7073 44.5963 11.6521L49.3843 9.98344C49.5186 9.94362 49.6393 9.86708 49.7332 9.76226C49.8271 9.65744 49.8905 9.52845 49.9163 9.38953L50.8683 4.35538C50.8922 4.21697 50.8817 4.07475 50.8377 3.94147C50.7937 3.80819 50.7176 3.68803 50.6163 3.59177Z" fill="white"/>
<path fill-rule="evenodd" clip-rule="evenodd" d="M8.92399 20.8154V36.1724C8.92367 36.5685 9.02711 36.9577 9.22382 37.3004C9.42052 37.6432 9.70349 37.9272 10.044 38.1238L23.2041 45.7882C23.5459 45.983 23.9317 46.0853 24.3241 46.0853C24.7165 46.0853 25.1023 45.983 25.4441 45.7882L38.6042 38.1238C38.9471 37.93 39.232 37.6465 39.429 37.3032C39.6261 36.9598 39.728 36.5692 39.7242 36.1724V20.8154C39.7245 20.4192 39.6211 20.03 39.4244 19.6873C39.2277 19.3446 38.9447 19.0605 38.6042 18.8639L25.4441 11.1996C25.1023 11.0048 24.7165 10.9025 24.3241 10.9025C23.9317 10.9025 23.5459 11.0048 23.2041 11.1996L10.044 18.8639C9.70114 19.0578 9.41624 19.3413 9.21918 19.6846C9.02212 20.028 8.92016 20.4185 8.92399 20.8154ZM30.8203 28.1121L26.1723 28.0838C26.0352 28.0858 25.9002 28.05 25.7817 27.9802C25.6633 27.9105 25.566 27.8094 25.5003 27.6878L23.1763 23.6718C23.1076 23.5463 23.0716 23.4052 23.0716 23.2618C23.0716 23.1183 23.1076 22.9772 23.1763 22.8517L25.4723 18.8639C25.544 18.7414 25.6465 18.6402 25.7694 18.5707C25.8924 18.5011 26.0314 18.4657 26.1723 18.468L30.8203 18.4963C30.9574 18.4943 31.0924 18.5301 31.2108 18.5998C31.3293 18.6696 31.4266 18.7707 31.4923 18.8922L33.8163 22.9082C33.885 23.0338 33.921 23.1749 33.921 23.3183C33.921 23.4617 33.885 23.6028 33.8163 23.7284L31.5203 27.7161C31.4486 27.8387 31.3461 27.9399 31.2232 28.0094C31.1002 28.079 30.9612 28.1144 30.8203 28.1121Z" fill="white"/>
<path fill-rule="evenodd" clip-rule="evenodd" d="M59.4924 11.9915C59.5324 12.0146 59.5661 12.0474 59.5905 12.0869C59.6149 12.1263 59.6293 12.1713 59.6324 12.2177V14.9893C59.6293 15.0358 59.6149 15.0807 59.5905 15.1202C59.5661 15.1596 59.5324 15.1924 59.4924 15.2156L57.1124 16.6014C57.0761 16.6289 57.0319 16.6438 56.9864 16.6438C56.941 16.6438 56.8968 16.6289 56.8604 16.6014L54.5084 15.2156C54.4684 15.1924 54.4348 15.1596 54.4103 15.1202C54.3859 15.0807 54.3715 15.0358 54.3684 14.9893V12.2177C54.3715 12.1713 54.3859 12.1263 54.4103 12.0869C54.4348 12.0474 54.4684 12.0146 54.5084 11.9915L56.8884 10.6057C56.9248 10.5781 56.969 10.5632 57.0144 10.5632C57.0599 10.5632 57.1041 10.5781 57.1404 10.6057L59.4924 11.9915Z" fill="white"/>
</svg>
