<svg width="75" height="80" viewBox="0 0 75 80" fill="none" xmlns="http://www.w3.org/2000/svg">
<path fill-rule="evenodd" clip-rule="evenodd" d="M43.2344 0.104307C41.8033 -0.129724 40.3377 0.0317104 38.9868 0.571984L38.9844 0.572944L10.1228 12.0838L10.1181 12.0856C8.76917 12.6174 7.58146 13.5087 6.67551 14.6681C5.77015 15.8267 5.17842 17.2118 4.9598 18.6822L4.95865 18.69L0.0879637 50.1983L0.0859307 50.2127C-0.120241 51.6754 0.0460857 53.1685 0.568723 54.545C1.09091 55.9202 1.95097 57.132 3.06493 58.0607L3.0679 58.0632L26.9741 78.0947L26.9769 78.097C28.0994 79.0409 29.4442 79.6617 30.875 79.8957C32.3065 80.1298 33.7724 79.9682 35.1236 79.4276L35.125 79.4271L63.9428 67.9615L63.9467 67.96C65.2959 67.4283 66.4839 66.5368 67.39 65.3773C68.2953 64.2187 68.8871 62.8337 69.1057 61.3633L69.1069 61.3554L73.9755 29.8603C74.2016 28.3923 74.0507 26.8887 73.5375 25.4996C73.0244 24.1105 72.1668 22.8842 71.05 21.9439L47.1353 1.90531L47.134 1.90416C46.0112 0.959594 44.6658 0.338379 43.2344 0.104307Z" fill="currentColor"/>
</svg>
