<svg xmlns="http://www.w3.org/2000/svg" viewBox="0 0 1530 1130">
  <style>
    .poly {
      opacity: 0.1;
      fill: #FF193C;
      stroke: #FF193C;
    }

    .poly-two {
      animation: pulse 5s linear 5;
    }
    .poly-three {
      animation: pulse 6s -2s linear 5;
    }
    .poly-four {
      animation: pulse 8s -3s linear 5;
    }

    .n {display: none;}

    @keyframes pulse {
      0%, 30%, 70%, 100% { opacity: 0.06; fill: #FF193C;}
      40%, 50% { opacity: 0.2; fill: #FF193C; }
      60% { opacity: 0.1; fill: transparent; }
    }

  </style>
  <g stroke-width="4"  fill-rule="evenodd" transform="rotate(5) translate(0, -40)">
    <path d="M565 203l38 22c4 2 5 5 5 9v44c0 4-1 7-5 9l-38 22c-3 2-7 2-10 0l-38-22c-4-2-5-5-5-9v-44c0-4 1-7 5-9l38-22c3-2 7-2 10 0zM677 203l38 22c4 2 5 5 5 9v44c0 4-1 7-5 9l-38 22c-3 2-7 2-10 0l-38-22c-4-2-5-5-5-9v-44c0-4 1-7 5-9l38-22c3-2 7-2 10 0zM789 203l38 22c4 2 5 5 5 9v44c0 4-1 7-5 9l-38 22c-3 2-7 2-10 0l-38-22c-4-2-5-5-5-9v-44c0-4 1-7 5-9l38-22c3-2 7-2 10 0z" class="poly poly-four"/>
    <path d="M901 203l38 22c4 2 5 5 5 9v44c0 4-1 7-5 9l-38 22c-3 2-7 2-10 0l-38-22c-4-2-5-5-5-9v-44c0-4 1-7 5-9l38-22c3-2 7-2 10 0z" class="poly poly-four"/>
    <path d="M1013 203l38 22c4 2 5 5 5 9v44c0 4-1 7-5 9l-38 22c-3 2-7 2-10 0l-38-22c-4-2-5-5-5-9v-44c0-4 1-7 5-9l38-22c3-2 7-2 10 0zM957 108l38 22c4 2 5 5 5 9v44c0 4-1 7-5 9l-38 22c-3 2-7 2-10 0l-38-22c-4-2-5-5-5-9v-44c0-4 1-7 5-9l38-22c3-2 7-2 10 0z" class="poly poly-one"/>
    <path d="M1069 108l38 22c4 2 5 5 5 9v44c0 4-1 7-5 9l-38 22c-3 2-7 2-10 0l-38-22c-4-2-5-5-5-9v-44c0-4 1-7 5-9l38-22c3-2 7-2 10 0z" class="poly poly-two"/>
    <path d="M1125 13l38 22c4 2 5 5 5 9v44c0 4-1 7-5 9l-38 22c-3 2-7 2-10 0l-38-22c-4-2-5-5-5-9V44c0-4 1-7 5-9l38-22c3-2 7-2 10 0zM1237 13l38 22c4 2 5 5 5 9v44c0 4-1 7-5 9l-38 22c-3 2-7 2-10 0l-38-22c-4-2-5-5-5-9V44c0-4 1-7 5-9l38-22c3-2 7-2 10 0zM1349 13l38 22c4 2 5 5 5 9v44c0 4-1 7-5 9l-38 22c-3 2-7 2-10 0l-38-22c-4-2-5-5-5-9V44c0-4 1-7 5-9l38-22c3-2 7-2 10 0zM1461 13l38 22c4 2 5 5 5 9v44c0 4-1 7-5 9l-38 22c-3 2-7 2-10 0l-38-22c-4-2-5-5-5-9V44c0-4 1-7 5-9l38-22c3-2 7-2 10 0zM1293 108l38 22c4 2 5 5 5 9v44c0 4-1 7-5 9l-38 22c-3 2-7 2-10 0l-38-22c-4-2-5-5-5-9v-44c0-4 1-7 5-9l38-22c3-2 7-2 10 0zM1405 108l38 22c4 2 5 5 5 9v44c0 4-1 7-5 9l-38 22c-3 2-7 2-10 0l-38-22c-4-2-5-5-5-9v-44c0-4 1-7 5-9l38-22c3-2 7-2 10 0zM1125 203l38 22c4 2 5 5 5 9v44c0 4-1 7-5 9l-38 22c-3 2-7 2-10 0l-38-22c-4-2-5-5-5-9v-44c0-4 1-7 5-9l38-22c3-2 7-2 10 0z" class="poly poly-three"/>
    <path d="M1237 203l38 22c4 2 5 5 5 9v44c0 4-1 7-5 9l-38 22c-3 2-7 2-10 0l-38-22c-4-2-5-5-5-9v-44c0-4 1-7 5-9l38-22c3-2 7-2 10 0z" class="poly poly-three"/>
    <path d="M1349 203l38 22c4 2 5 5 5 9v44c0 4-1 7-5 9l-38 22c-3 2-7 2-10 0l-38-22c-4-2-5-5-5-9v-44c0-4 1-7 5-9l38-22c3-2 7-2 10 0zM1461 203l38 22c4 2 5 5 5 9v44c0 4-1 7-5 9l-38 22c-3 2-7 2-10 0l-38-22c-4-2-5-5-5-9v-44c0-4 1-7 5-9l38-22c3-2 7-2 10 0zM397 298l38 22c4 2 5 5 5 9v44c0 4-1 7-5 9l-38 22c-3 2-7 2-10 0l-38-22c-4-2-5-5-5-9v-44c0-4 1-7 5-9l38-22c3-2 7-2 10 0z" class="poly poly-four"/>
    <path d="M509 298l38 22c4 2 5 5 5 9v44c0 4-1 7-5 9l-38 22c-3 2-7 2-10 0l-38-22c-4-2-5-5-5-9v-44c0-4 1-7 5-9l38-22c3-2 7-2 10 0z" class="poly poly-two "/>
    <path d="M621 298l38 22c4 2 5 5 5 9v44c0 4-1 7-5 9l-38 22c-3 2-7 2-10 0l-38-22c-4-2-5-5-5-9v-44c0-4 1-7 5-9l38-22c3-2 7-2 10 0zM733 298l38 22c4 2 5 5 5 9v44c0 4-1 7-5 9l-38 22c-3 2-7 2-10 0l-38-22c-4-2-5-5-5-9v-44c0-4 1-7 5-9l38-22c3-2 7-2 10 0zM845 298l38 22c4 2 5 5 5 9v44c0 4-1 7-5 9l-38 22c-3 2-7 2-10 0l-38-22c-4-2-5-5-5-9v-44c0-4 1-7 5-9l38-22c3-2 7-2 10 0zM957 298l38 22c4 2 5 5 5 9v44c0 4-1 7-5 9l-38 22c-3 2-7 2-10 0l-38-22c-4-2-5-5-5-9v-44c0-4 1-7 5-9l38-22c3-2 7-2 10 0zM1069 298l38 22c4 2 5 5 5 9v44c0 4-1 7-5 9l-38 22c-3 2-7 2-10 0l-38-22c-4-2-5-5-5-9v-44c0-4 1-7 5-9l38-22c3-2 7-2 10 0zM1181 298l38 22c4 2 5 5 5 9v44c0 4-1 7-5 9l-38 22c-3 2-7 2-10 0l-38-22c-4-2-5-5-5-9v-44c0-4 1-7 5-9l38-22c3-2 7-2 10 0zM1293 298l38 22c4 2 5 5 5 9v44c0 4-1 7-5 9l-38 22c-3 2-7 2-10 0l-38-22c-4-2-5-5-5-9v-44c0-4 1-7 5-9l38-22c3-2 7-2 10 0zM229 393l38 22c4 2 5 5 5 9v44c0 4-1 7-5 9l-38 22c-3 2-7 2-10 0l-38-22c-4-2-5-5-5-9v-44c0-4 1-7 5-9l38-22c3-2 7-2 10 0z" class="poly poly-one"/>
    <path d="M341 393l38 22c4 2 5 5 5 9v44c0 4-1 7-5 9l-38 22c-3 2-7 2-10 0l-38-22c-4-2-5-5-5-9v-44c0-4 1-7 5-9l38-22c3-2 7-2 10 0z" class="poly poly-three"/>
    <path d="M453 393l38 22c4 2 5 5 5 9v44c0 4-1 7-5 9l-38 22c-3 2-7 2-10 0l-38-22c-4-2-5-5-5-9v-44c0-4 1-7 5-9l38-22c3-2 7-2 10 0zM565 393l38 22c4 2 5 5 5 9v44c0 4-1 7-5 9l-38 22c-3 2-7 2-10 0l-38-22c-4-2-5-5-5-9v-44c0-4 1-7 5-9l38-22c3-2 7-2 10 0zM61 488l38 22c4 2 5 5 5 9v44c0 4-1 7-5 9l-38 22c-3 2-7 2-10 0l-38-22c-4-2-5-5-5-9v-44c0-4 1-7 5-9l38-22c3-2 7-2 10 0z" class="poly poly-two"/>
    <path d="M173 488l38 22c4 2 5 5 5 9v44c0 4-1 7-5 9l-38 22c-3 2-7 2-10 0l-38-22c-4-2-5-5-5-9v-44c0-4 1-7 5-9l38-22c3-2 7-2 10 0z" class="poly poly-three"/>
    <path d="M285 488l38 22c4 2 5 5 5 9v44c0 4-1 7-5 9l-38 22c-3 2-7 2-10 0l-38-22c-4-2-5-5-5-9v-44c0-4 1-7 5-9l38-22c3-2 7-2 10 0zM397 488l38 22c4 2 5 5 5 9v44c0 4-1 7-5 9l-38 22c-3 2-7 2-10 0l-38-22c-4-2-5-5-5-9v-44c0-4 1-7 5-9l38-22c3-2 7-2 10 0z" class="poly poly-one"/>
    <path d="M229 773l38 22c4 2 5 5 5 9v44c0 4-1 7-5 9l-38 22c-3 2-7 2-10 0l-38-22c-4-2-5-5-5-9v-44c0-4 1-7 5-9l38-22c3-2 7-2 10 0z" class="poly poly-three"/>
    <path d="M341 773l38 22c4 2 5 5 5 9v44c0 4-1 7-5 9l-38 22c-3 2-7 2-10 0l-38-22c-4-2-5-5-5-9v-44c0-4 1-7 5-9l38-22c3-2 7-2 10 0z" class="poly poly-two"/>
    <path d="M453 773l38 22c4 2 5 5 5 9v44c0 4-1 7-5 9l-38 22c-3 2-7 2-10 0l-38-22c-4-2-5-5-5-9v-44c0-4 1-7 5-9l38-22c3-2 7-2 10 0z" class="poly poly-three"/>
    <path d="M565 773l38 22c4 2 5 5 5 9v44c0 4-1 7-5 9l-38 22c-3 2-7 2-10 0l-38-22c-4-2-5-5-5-9v-44c0-4 1-7 5-9l38-22c3-2 7-2 10 0z" class="poly poly-four"/>
    <path d="M280 868l38 22c4 2 5 5 5 9v44c0 4-1 7-5 9l-38 22c-3 2-7 2-10 0l-38-22c-4-2-5-5-5-9v-44c0-4 1-7 5-9l38-22c3-2 7-2 10 0z" class="poly poly-two"/>
    <path d="M392 868l38 22c4 2 5 5 5 9v44c0 4-1 7-5 9l-38 22c-3 2-7 2-10 0l-38-22c-4-2-5-5-5-9v-44c0-4 1-7 5-9l38-22c3-2 7-2 10 0zM448 963l38 22c4 2 5 5 5 9v44c0 4-1 7-5 9l-38 22c-3 2-7 2-10 0l-38-22c-4-2-5-5-5-9v-44c0-4 1-7 5-9l38-22c3-2 7-2 10 0zM504 868l38 22c4 2 5 5 5 9v44c0 4-1 7-5 9l-38 22c-3 2-7 2-10 0l-38-22c-4-2-5-5-5-9v-44c0-4 1-7 5-9l38-22c3-2 7-2 10 0zM616 868l38 22c4 2 5 5 5 9v44c0 4-1 7-5 9l-38 22c-3 2-7 2-10 0l-38-22c-4-2-5-5-5-9v-44c0-4 1-7 5-9l38-22c3-2 7-2 10 0zM672 963l38 22c4 2 5 5 5 9v44c0 4-1 7-5 9l-38 22c-3 2-7 2-10 0l-38-22c-4-2-5-5-5-9v-44c0-4 1-7 5-9l38-22c3-2 7-2 10 0zM112 583l38 22c4 2 5 5 5 9v44c0 4-1 7-5 9l-38 22c-3 2-7 2-10 0l-38-22c-4-2-5-5-5-9v-44c0-4 1-7 5-9l38-22c3-2 7-2 10 0z" class="poly poly-one"/>
    <path d="M224 583l38 22c4 2 5 5 5 9v44c0 4-1 7-5 9l-38 22c-3 2-7 2-10 0l-38-22c-4-2-5-5-5-9v-44c0-4 1-7 5-9l38-22c3-2 7-2 10 0z" class="poly poly-two"/>
    <path d="M336 583l38 22c4 2 5 5 5 9v44c0 4-1 7-5 9l-38 22c-3 2-7 2-10 0l-38-22c-4-2-5-5-5-9v-44c0-4 1-7 5-9l38-22c3-2 7-2 10 0zM285 678l38 22c4 2 5 5 5 9v44c0 4-1 7-5 9l-38 22c-3 2-7 2-10 0l-38-22c-4-2-5-5-5-9v-44c0-4 1-7 5-9l38-22c3-2 7-2 10 0zM397 678l38 22c4 2 5 5 5 9v44c0 4-1 7-5 9l-38 22c-3 2-7 2-10 0l-38-22c-4-2-5-5-5-9v-44c0-4 1-7 5-9l38-22c3-2 7-2 10 0zM677 393l38 22c4 2 5 5 5 9v44c0 4-1 7-5 9l-38 22c-3 2-7 2-10 0l-38-22c-4-2-5-5-5-9v-44c0-4 1-7 5-9l38-22c3-2 7-2 10 0zM789 393l38 22c4 2 5 5 5 9v44c0 4-1 7-5 9l-38 22c-3 2-7 2-10 0l-38-22c-4-2-5-5-5-9v-44c0-4 1-7 5-9l38-22c3-2 7-2 10 0zM901 393l38 22c4 2 5 5 5 9v44c0 4-1 7-5 9l-38 22c-3 2-7 2-10 0l-38-22c-4-2-5-5-5-9v-44c0-4 1-7 5-9l38-22c3-2 7-2 10 0zM1013 393l38 22c4 2 5 5 5 9v44c0 4-1 7-5 9l-38 22c-3 2-7 2-10 0l-38-22c-4-2-5-5-5-9v-44c0-4 1-7 5-9l38-22c3-2 7-2 10 0zM1125 393l38 22c4 2 5 5 5 9v44c0 4-1 7-5 9l-38 22c-3 2-7 2-10 0l-38-22c-4-2-5-5-5-9v-44c0-4 1-7 5-9l38-22c3-2 7-2 10 0z" class="poly poly-one"/>
  </g>
</svg>