<svg width="401" height="123" viewBox="0 0 401 123" fill="none" xmlns="http://www.w3.org/2000/svg">
<path d="M132.56 29.0214V35.4248H126.885V29.0214H132.56ZM132.56 45.6702V84.5006H126.885V45.6446L132.56 45.6702Z" fill="black" fill-opacity="0.94"/>
<path d="M142.487 45.6446H148.195L148.073 51.4973L148.195 51.619C150.386 47.2561 154.6 45.0747 160.835 45.0747C167.406 45.0747 171.392 47.2561 172.792 51.619H172.952C175.386 47.2561 179.832 45.0747 186.288 45.0747C195.417 45.0747 199.982 49.7492 199.982 59.0982V84.5005H194.313V58.5731C194.313 55.1537 193.675 52.81 192.487 51.619C191.3 50.428 188.976 49.7876 185.599 49.7876C181.109 49.7876 178.07 50.6414 176.482 52.349C174.895 54.0566 174.086 57.2818 174.056 62.0245V84.5005H168.381V59.0982L168.304 57.3116C168.304 52.2956 165.453 49.7876 159.75 49.7876C152.046 49.7876 148.195 54.0032 148.195 62.4344V84.5005H142.519L142.487 45.6446Z" fill="black" fill-opacity="0.94"/>
<path d="M211.014 45.6446H216.689L216.568 51.4973L216.689 51.619C218.881 47.2561 223.094 45.0747 229.329 45.0747C235.901 45.0747 239.887 47.2561 241.287 51.619H241.446C243.881 47.2561 248.335 45.0747 254.808 45.0747C263.937 45.0747 268.502 49.7492 268.502 59.0982V84.5005H262.827V58.5731C262.827 55.1537 262.22 52.81 261.007 51.619C259.794 50.428 257.496 49.7876 254.119 49.7876C249.633 49.7876 246.592 50.6414 244.996 52.349C243.4 54.0566 242.596 57.2818 242.583 62.0245V84.5005H236.933V59.0982L236.856 57.3116C236.856 52.2956 234.005 49.7876 228.302 49.7876C220.577 49.7876 216.715 54.0032 216.715 62.4344V84.5005H211.014V45.6446Z" fill="black" fill-opacity="0.94"/>
<path d="M311.147 45.6447V84.5006H305.478L305.881 79.4227L305.759 79.301C303.789 83.143 299.573 85.0641 293.113 85.0641C284.068 85.0641 279.544 80.539 279.54 71.4888V45.6447H285.215V71.4952C285.215 75.0171 285.796 77.365 286.958 78.539C288.12 79.713 290.401 80.3085 293.802 80.3255C298.267 80.3255 301.327 79.4376 302.982 77.6617C304.638 75.8858 305.47 72.6286 305.478 67.8901V45.6447H311.147Z" fill="black" fill-opacity="0.94"/>
<path d="M321.643 45.6446H327.114L326.948 50.9466L327.107 51.0683C328.84 47.0853 333.136 45.0939 339.997 45.0939C345.53 45.0939 349.277 46.0693 351.239 48.0202C353.201 49.9711 354.18 53.7107 354.176 59.239V84.5005H348.507V58.2465C348.507 54.9082 347.868 52.6648 346.591 51.5165C345.315 50.3682 342.872 49.7918 339.263 49.7876C331.291 49.7876 327.305 53.5677 327.305 61.128V84.5005H321.63L321.643 45.6446Z" fill="black" fill-opacity="0.94"/>
<path d="M391.388 72.7567H397.172L397.217 74.1782C397.217 78.2209 395.993 81.047 393.546 82.6564C391.099 84.2658 386.811 85.0704 380.682 85.0704C373.553 85.0704 368.872 83.7642 366.637 81.1516C364.403 78.539 363.303 73.0448 363.337 64.6692C363.337 56.9125 364.458 51.7086 366.701 49.0576C368.944 46.4066 373.332 45.079 379.865 45.0747C387.002 45.0747 391.684 46.2273 393.91 48.5326C396.136 50.8378 397.223 55.698 397.172 63.1131V66.1612H369.299C369.299 72.2914 369.955 76.1932 371.266 77.8666C372.577 79.54 375.637 80.381 380.446 80.3896C385.013 80.3896 387.977 79.9904 389.339 79.1921C390.701 78.3938 391.384 76.6649 391.388 74.0053V72.7567ZM391.388 61.698L391.344 59.873C391.344 55.6724 390.656 52.9424 389.281 51.683C387.907 50.4237 384.928 49.7834 380.344 49.762C375.756 49.762 372.777 50.5005 371.406 51.9776C370.036 53.4546 369.355 56.6862 369.363 61.6724L391.388 61.698Z" fill="black" fill-opacity="0.94"/>
<path d="M292.149 108.987C292.219 110.14 292.219 110.953 292.219 112.887C292.219 116.761 291.881 118.151 290.661 119.406C289.308 120.834 287.514 121.205 282.17 121.205C279.093 121.205 277.702 121.032 276.386 120.494C273.475 119.271 272.492 117.1 272.492 111.875C272.492 105.933 272.562 104.607 273.003 102.949C273.248 101.893 273.779 100.925 274.537 100.152C275.295 99.3797 276.251 98.8317 277.299 98.5689C278.346 98.2615 279.853 98.1591 282.675 98.1591C287.31 98.1591 288.459 98.3319 289.984 99.2476C291.51 100.163 292.085 101.758 292.149 105.152H287.782C287.648 102.136 287.144 101.796 282.439 101.796C279.189 101.796 278.04 102.168 277.433 103.423C276.993 104.37 276.891 105.427 276.891 109.532C276.891 113.809 276.993 115.064 277.402 115.935C277.976 117.216 279.227 117.568 282.745 117.568C285.216 117.568 286.467 117.331 287.041 116.755C287.616 116.178 287.922 114.955 287.922 113.124C287.922 113.021 287.884 112.612 287.852 112.202H282.202V109L292.149 108.987Z" fill="black" fill-opacity="0.94"/>
<path d="M318.304 98.3639V113.431C318.304 116.217 317.966 117.741 317.123 118.861C316.373 119.805 315.338 120.479 314.173 120.782C313.299 121.058 311.537 121.192 308.932 121.192C305.619 121.192 304.093 121.019 302.778 120.443C300.339 119.393 299.586 117.766 299.586 113.655V98.3511H303.914V113.7C303.914 116.991 304.591 117.504 308.99 117.504C313.388 117.504 314.001 117.03 314.001 113.534V98.3639H318.304Z" fill="black" fill-opacity="0.94"/>
<path d="M330.083 116.658L328.691 121H324.158L331.672 98.3639H338.056L345.717 121H341.287L339.831 116.658H330.083ZM334.954 101.694L331.123 113.431H338.867L334.954 101.694Z" fill="black" fill-opacity="0.94"/>
<path d="M352.076 98.3639H363.171C368.617 98.3639 370.481 100.061 370.481 105.119C370.481 109.634 369.702 110.883 366.421 111.523V111.696C368.974 111.83 370.251 113.354 370.251 116.108V121.026H365.891V116.902C365.955 114.424 364.908 113.374 362.507 113.444H356.417V121H352.088L352.076 98.3639ZM362.463 109.768C363.816 109.768 364.691 109.563 365.201 109.09C365.91 108.513 366.082 107.809 366.082 105.888C366.082 102.686 365.54 102.084 362.763 102.084H356.379V109.768H362.463Z" fill="black" fill-opacity="0.94"/>
<path d="M378.02 98.3639H389.147C392.263 98.3639 394.223 99.0042 395.531 100.285C397.153 101.95 397.696 103.884 397.696 107.822C397.696 113.931 397.491 115.794 396.744 117.388C395.468 119.867 393.227 120.987 389.301 120.987H378.02V98.3639ZM388.439 117.267C390.501 117.267 391.631 116.863 392.327 115.909C393.022 114.955 393.278 113.502 393.278 109.634C393.278 105.766 393.106 104.409 392.397 103.423C391.688 102.436 390.705 102.142 388.707 102.142H382.323V117.273L388.439 117.267Z" fill="black" fill-opacity="0.94"/>
<path d="M7.23501 88.7909L42.0281 117.094C43.2515 118.094 44.717 118.751 46.2757 118.998C47.8343 119.245 49.4304 119.075 50.9019 118.503L92.845 102.302C94.3133 101.741 95.607 100.8 96.594 99.5734C97.5809 98.3472 98.2259 96.8803 98.463 95.3224L105.549 50.8186C105.796 49.2625 105.631 47.6686 105.071 46.1964C104.511 44.7243 103.575 43.4255 102.357 42.4302L67.5642 14.1271C66.3408 13.1274 64.8752 12.4705 63.3166 12.223C61.758 11.9756 60.1618 12.1465 58.6904 12.7183L16.6834 28.983C15.2151 29.5439 13.9214 30.4855 12.9345 31.7117C11.9475 32.9379 11.3025 34.4048 11.0654 35.9627L3.97915 80.4664C3.75386 82.0182 3.93565 83.602 4.50659 85.0617C5.07753 86.5215 6.01791 87.8068 7.23501 88.7909V88.7909Z" stroke="black" stroke-opacity="0.94" stroke-width="6"/>
<path fill-rule="evenodd" clip-rule="evenodd" d="M115.125 9.13235L106.315 1.44825C106.08 1.22791 105.786 1.08048 105.469 1.02369C105.152 0.966889 104.825 1.00314 104.528 1.12808L93.6112 4.9061C93.305 4.99625 93.0297 5.16957 92.8156 5.40689C92.6016 5.64421 92.4571 5.93628 92.3982 6.25081L90.2276 17.6489C90.1732 17.9623 90.1972 18.2843 90.2975 18.586C90.3978 18.8878 90.5712 19.1599 90.8022 19.3778L99.6122 27.0619C99.8478 27.2823 100.142 27.4297 100.459 27.4865C100.776 27.5433 101.103 27.507 101.4 27.3821L112.316 23.6041C112.623 23.5139 112.898 23.3406 113.112 23.1033C113.326 22.866 113.47 22.5739 113.529 22.2594L115.7 10.8613C115.754 10.5479 115.73 10.2259 115.63 9.92412C115.53 9.62236 115.356 9.35029 115.125 9.13235Z" fill="black" fill-opacity="0.94"/>
<path fill-rule="evenodd" clip-rule="evenodd" d="M20.0666 48.1292V82.8997C20.0659 83.7967 20.3018 84.6778 20.7502 85.4538C21.1987 86.2298 21.8439 86.873 22.6203 87.3181L52.6253 104.671C53.4045 105.112 54.2841 105.344 55.1789 105.344C56.0736 105.344 56.9532 105.112 57.7325 104.671L87.7375 87.3181C88.5192 86.8792 89.1688 86.2374 89.6181 85.46C90.0674 84.6826 90.2999 83.7982 90.2911 82.8997V48.1292C90.2919 47.2322 90.056 46.351 89.6075 45.5751C89.159 44.7991 88.5139 44.1559 87.7375 43.7108L57.7325 26.3576C56.9532 25.9165 56.0736 25.6848 55.1789 25.6848C54.2841 25.6848 53.4045 25.9165 52.6253 26.3576L22.6203 43.7108C21.8385 44.1497 21.189 44.7915 20.7397 45.5689C20.2904 46.3463 20.0579 47.2306 20.0666 48.1292ZM69.9902 64.65L59.3927 64.5859C59.0802 64.5905 58.7723 64.5094 58.5023 64.3515C58.2323 64.1935 58.0104 63.9646 57.8606 63.6895L52.5618 54.5966C52.4053 54.3123 52.3232 53.9929 52.3232 53.6681C52.3232 53.3434 52.4053 53.0239 52.5618 52.7396L57.7967 43.7108C57.9601 43.4333 58.1939 43.2042 58.4742 43.0468C58.7546 42.8893 59.0715 42.8091 59.3927 42.8143L69.9902 42.8784C70.3028 42.8738 70.6107 42.9548 70.8807 43.1128C71.1507 43.2708 71.3725 43.4997 71.5224 43.7748L76.8212 52.8677C76.9777 53.152 77.0597 53.4714 77.0597 53.7962C77.0597 54.1209 76.9777 54.4404 76.8212 54.7247L71.5863 63.7535C71.4228 64.031 71.1891 64.2601 70.9087 64.4175C70.6284 64.575 70.3115 64.6552 69.9902 64.65Z" fill="black" fill-opacity="0.94"/>
<path fill-rule="evenodd" clip-rule="evenodd" d="M135.362 28.1505C135.454 28.2029 135.53 28.2771 135.586 28.3665C135.642 28.4558 135.675 28.5576 135.682 28.6627V34.9381C135.675 35.0432 135.642 35.145 135.586 35.2344C135.53 35.3237 135.454 35.3979 135.362 35.4504L129.936 38.588C129.853 38.6504 129.752 38.6841 129.649 38.6841C129.545 38.6841 129.444 38.6504 129.361 38.588L123.999 35.4504C123.908 35.3979 123.831 35.3237 123.775 35.2344C123.72 35.145 123.687 35.0432 123.68 34.9381V28.6627C123.687 28.5576 123.72 28.4558 123.775 28.3665C123.831 28.2771 123.908 28.2029 123.999 28.1505L129.425 25.0128C129.508 24.9505 129.609 24.9167 129.713 24.9167C129.816 24.9167 129.917 24.9505 130 25.0128L135.362 28.1505Z" fill="black" fill-opacity="0.94"/>
</svg>
