<svg width="394" height="757" viewBox="0 0 394 757" fill="none" xmlns="http://www.w3.org/2000/svg">
<g clip-path="url(#clip0)">
<path d="M392.553 147.043C391.455 148.371 389.877 149.218 388.157 149.4C386.438 149.582 384.715 149.086 383.361 148.017L352.787 123.893L360.988 113.899L391.562 138.034C392.23 138.555 392.787 139.204 393.2 139.941C393.612 140.679 393.872 141.492 393.964 142.331C394.057 143.17 393.98 144.019 393.737 144.828C393.495 145.638 393.092 146.39 392.553 147.043Z" fill="#410028"/>
<path d="M173.921 239.707C167.964 240.296 163.327 230.54 162.986 228.206C162.393 224.115 164.125 220.795 162.792 218.654C161.459 216.512 158.68 214.937 158.509 209.974C158.304 204.082 161.79 198.745 167.759 199.776C171.734 200.445 166.187 193.896 167.565 189.839C168.943 185.783 172.338 183.596 175.915 183.992C179.491 184.389 180.095 182.621 181.485 180.094C182.875 177.568 182.841 175.064 186.429 173.5C188.139 172.704 190.024 172.355 191.907 172.484C193.79 172.612 195.609 173.216 197.193 174.236C200.611 176.389 202.16 176.503 205.543 174.406C208.926 172.31 210.214 168.356 217.185 168.741C224.157 169.126 226.856 172.14 227.847 175.641C228.838 179.143 227.562 177.806 232.142 177.024C236.721 176.242 237.553 176.423 240.526 178.01C249.308 182.678 247.36 190.87 244.478 193C241.635 194.935 238.315 196.059 234.876 196.252C233.475 196.252 230.809 197.623 231.606 201.918C232.404 206.212 232.199 210.303 227.05 211.277C221.901 212.252 201.796 222.008 199.802 214.405C197.809 206.802 181.804 203.606 181.804 213.158C181.804 222.71 184.686 234.087 184.686 234.087L173.921 239.707Z" fill="#9A4886"/>
<path d="M179.412 243.005C179.412 243.005 189.937 261.61 180.243 277.394C180.243 277.394 174.662 288.725 201.499 299.444C201.499 299.444 235.969 272.34 232.666 265.859C232.666 265.859 219.247 267.479 221.275 261.814C223.302 256.149 235.935 246.846 232.222 243.605L179.412 243.005Z" fill="#FCE9F3"/>
<path d="M195.041 252.523C191.384 251.922 189.049 251.322 189.049 251.322L181.075 246.574C183.593 252.727 187.352 265.837 180.244 277.394C179.61 279.081 179.578 280.933 180.152 282.641C197.706 285.972 203.129 277.122 209.633 269.361C214.417 263.65 202.331 256.262 195.041 252.523Z" fill="#FADBEB"/>
<path d="M218.347 195.312C218.347 195.312 245.105 237.531 231.424 248.058C217.743 258.584 189.094 251.321 189.094 251.321L177.863 244.625C177.863 244.625 172.976 245.576 170.048 242.234C167.121 238.891 167.599 231.696 170.527 230.268C173.454 228.84 179.81 232.183 179.81 232.183C179.81 232.183 175.311 206.938 186.645 198.19C203.766 184.944 218.347 195.312 218.347 195.312Z" fill="#FCE9F3"/>
<path d="M129.142 694.873C129.142 694.873 137.116 696.255 134.838 710.838C134.781 711.189 134.623 711.515 134.382 711.778C130.669 715.767 99.9012 748.4 84.7736 749.895C72.5053 751.108 70.5232 743.176 70.2726 739.312C70.2345 738.715 70.3338 738.117 70.5627 737.563C70.7916 737.01 71.1443 736.515 71.594 736.117L114.881 697.354L129.142 694.873Z" fill="#9A4886"/>
<path d="M76.6402 731.596C76.5719 735.063 79.75 739.879 87.0632 734.814C100.448 725.523 106.428 716.163 114.949 697.331H114.835L76.6402 731.596Z" fill="#AF62A2"/>
<path d="M134.861 710.736C135.102 709.142 135.228 707.532 135.237 705.92C130.373 711.382 116.521 726.316 100.63 738.214C86.5735 748.774 77.1758 747.845 72.9041 746.417C74.9431 748.774 78.5199 750.508 84.7282 749.896C99.7646 748.4 130.293 716.175 134.269 711.858C134.569 711.547 134.775 711.158 134.861 710.736Z" fill="#682552"/>
<path d="M279.086 701.965C279.086 701.965 272.023 722.565 272.023 726.644C272.023 730.724 279.701 750.802 286.501 754.507C293.302 758.213 308.236 758.598 312.94 745.986C317.645 733.375 288.495 699.529 288.495 699.529L279.086 701.965Z" fill="#9A4886"/>
<path d="M312.94 745.986C313.543 744.082 313.629 742.054 313.191 740.106C312.052 744.162 308.076 754.36 295.341 753.488C283.949 752.717 276.944 740.378 273.697 733.42C276.158 741.431 281.933 751.437 286.455 754.507C292.755 758.745 308.236 758.598 312.94 745.986Z" fill="#682552"/>
<path d="M278.299 704.288C276.466 709.784 272.023 723.404 272.023 726.644V726.78C276.26 733.477 285.237 746.519 290.784 745.918C298.234 745.103 286.923 708.991 286.923 708.991L278.299 704.288Z" fill="#682552"/>
<path d="M376.89 151.631L381.937 146.895L374.908 140.153C376.663 128.946 362.458 123.508 362.458 123.508C367.743 115.576 365.454 108.675 365.454 108.675C365.271 114.341 349.084 124.89 349.084 124.89C356.124 129.887 363.893 151.971 363.893 151.971C363.893 180.298 325.88 223.22 325.88 223.22C325.88 223.22 301.697 246.437 282.73 257.95L302.164 293.665C324.365 271.275 351.568 248.409 351.568 248.409C380.057 206.314 376.89 151.631 376.89 151.631Z" fill="#FADBEB"/>
<path d="M370.477 150.815C370.477 150.815 365.135 130.725 359.006 125.139C359.006 125.139 363.882 119.757 365.841 114.386C366.071 112.49 365.939 110.568 365.454 108.72C365.271 114.386 349.084 124.935 349.084 124.935C356.124 129.932 363.893 152.016 363.893 152.016C363.893 180.344 325.88 223.265 325.88 223.265C325.88 223.265 301.697 246.483 282.73 257.995L291.012 273.212C313.487 258.505 384.01 207.357 370.477 150.815Z" fill="#FCE9F3"/>
<path d="M275.463 694.691L280.896 712.82C280.896 712.82 287.412 722.055 291.034 712.107L291.217 690.578L275.463 694.691Z" fill="#F5CAE1"/>
<path d="M121.191 679.236L112.295 702.147C112.295 702.147 105.05 712.447 106.679 713.863C107.921 714.996 119.984 707.132 125.748 703.303C127.704 701.999 129.192 700.11 129.997 697.909L138.199 675.519L121.191 679.236Z" fill="#F5CAE1"/>
<path d="M269.767 527.797C268.958 521.859 267.01 510.347 265.712 503.628C262.295 486.201 259.64 463.561 258.433 452.638L126.705 448.378C122.068 518.38 119.335 585.029 119.335 585.029C119.335 585.029 112.363 666.828 118.606 677.705C119.511 679.355 120.757 680.796 122.262 681.932L132.332 683.133C133.484 682.769 134.589 682.271 135.624 681.649C158.406 648.381 164.774 596.927 164.774 596.927L181.77 520.103C181.77 520.103 256.064 686.442 277.183 696.062C293.233 703.37 291.422 690.487 291.422 690.487C291.422 690.487 272.478 547.728 269.767 527.797Z" fill="#682552"/>
<path d="M228.474 490.449C225.49 483.741 194.676 491.843 168.761 487.435C149.704 484.183 135.59 467.697 125.543 466.53C121.613 529.484 119.335 585.074 119.335 585.074C119.335 585.074 112.363 666.873 118.606 677.75C119.745 679.677 119.745 681.15 122.262 681.977L132.332 683.178C132.957 683.186 133.576 683.058 134.145 682.801C134.714 682.545 135.219 682.166 135.624 681.693C158.407 648.426 164.774 596.972 164.774 596.972L181.77 520.148C181.77 520.148 213.905 592.088 241.916 644.086C238.886 624.041 247.486 591.386 245.709 561.642C243.659 527.388 231.242 496.795 228.474 490.449Z" fill="#9A4886"/>
<path d="M288.585 254.143C279.814 260.148 271.499 264.556 266.19 264.273C252.213 263.525 236.493 265.53 232.723 266.052C232.723 265.995 232.723 265.916 232.666 265.859C235.969 272.34 201.499 299.444 201.499 299.444C175.368 289.008 179.97 277.995 180.232 277.428C171.814 280.034 161.881 283.093 158.463 283.796C152.13 285.178 144.931 292.861 144.931 292.861C137.23 309.744 130.68 386.432 126.146 457.001C176.074 496.297 232.791 476.706 259.72 463.313C258.513 453.353 257.795 446.316 257.795 446.316C249.001 411.813 262.556 362.818 262.556 362.818C262.556 362.818 264.083 348.994 275.668 325.687C280.224 316.622 292.755 302.821 306.424 289.427C297.209 277.519 290.773 260.443 288.585 254.143Z" fill="#EDEDED"/>
<path d="M203.231 382.455C237.701 413.218 238.931 388.483 247.554 375.815C256.177 363.147 258.011 297.382 264.174 292.555C270.337 287.728 274.631 297.382 284.485 295.569C292.675 294.062 297.562 281.881 298.974 277.825C294.889 270.216 291.415 262.297 288.585 254.143C279.814 260.148 271.499 264.556 266.19 264.273C252.213 263.525 236.493 265.53 232.723 266.052C232.723 265.995 232.723 265.916 232.666 265.859C235.969 272.34 201.499 299.444 201.499 299.444C175.368 289.008 179.97 277.995 180.232 277.428C171.814 280.034 161.881 283.093 158.463 283.796C152.13 285.178 144.931 292.861 144.931 292.861C137.23 309.744 130.68 386.432 126.146 457.001C136.892 465.572 149.205 471.99 162.405 475.901C164.683 446.803 174.206 356.541 203.231 382.455Z" fill="white"/>
<path d="M167.588 282.776H55.8626L0 377.616L55.8626 472.456H167.588L223.439 377.616L167.588 282.776Z" fill="#7B3767"/>
<path d="M163.635 289.483H59.8039L7.89404 377.616L59.8039 465.759H163.635L215.556 377.616L163.635 289.483Z" fill="#410028"/>
<path d="M87.3479 355.056V357.322H85.2861V355.056H87.3479ZM87.3479 360.96V374.772H85.2861V360.96H87.3479Z" fill="white"/>
<path d="M90.9587 360.96H93.0206V363.045C93.8179 361.504 95.2988 360.722 97.5771 360.722C99.8553 360.722 101.405 361.504 101.917 363.045C102.806 361.504 104.423 360.722 106.77 360.722C110.088 360.722 111.748 362.384 111.748 365.707V374.772H109.788V365.549C109.89 364.672 109.654 363.789 109.128 363.079C108.401 362.564 107.509 362.334 106.622 362.433C105.44 362.293 104.25 362.618 103.307 363.339C102.615 364.331 102.303 365.537 102.43 366.738V374.727H100.368V365.662V365.027C100.368 363.248 99.3313 362.353 97.2581 362.353C94.4483 362.353 93.0433 363.864 93.0433 366.886V374.738H90.9587V360.96Z" fill="white"/>
<path d="M115.872 360.96H117.934V363.045C118.731 361.504 120.212 360.722 122.49 360.722C124.768 360.722 126.329 361.504 126.83 363.045H126.899C127.776 361.504 129.393 360.722 131.74 360.722C135.066 360.722 136.718 362.387 136.718 365.707V374.772H134.656V365.549C134.758 364.672 134.522 363.789 133.995 363.079C133.268 362.564 132.376 362.334 131.489 362.433C130.308 362.293 129.118 362.618 128.174 363.339C127.487 364.333 127.18 365.539 127.309 366.738V374.727H125.304V365.662V365.027C125.304 363.248 124.267 362.353 122.194 362.353C119.392 362.353 117.979 363.849 117.979 366.886V374.738H115.917L115.872 360.96Z" fill="white"/>
<path d="M152.289 360.96V374.772H150.216L150.364 372.959C149.658 374.33 148.086 375.01 145.808 375.01C142.512 375.01 140.868 373.405 140.875 370.194V361.005H142.937V370.194C142.83 371.077 143.053 371.968 143.564 372.698C144.284 373.219 145.175 373.449 146.058 373.344C147.253 373.478 148.453 373.136 149.396 372.393C150.11 371.38 150.43 370.144 150.296 368.914V360.982L152.289 360.96Z" fill="white"/>
<path d="M156.06 360.96H158.042L157.985 362.841H158.042C158.668 361.424 160.229 360.71 162.735 360.71C164.74 360.71 166.152 361.062 166.825 361.753C167.497 362.444 167.884 363.77 167.884 365.741V374.727H165.822V365.39C165.876 364.966 165.842 364.535 165.722 364.124C165.603 363.713 165.4 363.33 165.127 362.999C164.334 362.5 163.394 362.285 162.462 362.387C159.568 362.387 158.122 363.732 158.122 366.421V374.727H156.06V360.96Z" fill="white"/>
<path d="M181.462 370.591H183.57V371.101C183.629 371.675 183.537 372.255 183.304 372.783C183.07 373.312 182.702 373.771 182.237 374.115C180.778 374.801 179.164 375.094 177.555 374.965C174.969 374.965 173.261 374.5 172.452 373.571C171.643 372.642 171.233 370.693 171.233 367.724C171.233 364.96 171.643 363.113 172.463 362.172C173.283 361.232 174.867 360.756 177.247 360.756C179.845 360.756 181.542 361.164 182.351 361.98C183.16 362.795 183.558 364.529 183.558 367.158V368.291H173.42C173.42 370.467 173.659 371.86 174.138 372.45C174.616 373.039 175.721 373.356 177.464 373.356C178.561 373.445 179.664 373.298 180.699 372.925C181.2 372.642 181.451 372.03 181.451 371.078L181.462 370.591ZM181.462 366.659V366.013C181.601 364.983 181.331 363.938 180.71 363.101C179.732 362.538 178.598 362.304 177.475 362.433C175.797 362.433 174.715 362.693 174.229 363.215C173.728 363.747 173.477 364.892 173.477 366.614L181.462 366.659Z" fill="white"/>
<path d="M108.855 390.454C108.855 391.247 108.855 391.814 108.855 393.151C108.855 395.825 108.615 396.788 107.716 397.683C106.816 398.578 105.437 398.918 101.712 398.918C100.326 399.028 98.9324 398.862 97.6115 398.431C95.5611 397.581 94.8662 396.086 94.8662 392.471C94.8662 388.369 94.8662 387.451 95.2193 386.307C95.3978 385.572 95.7759 384.9 96.3123 384.365C96.8487 383.829 97.5227 383.451 98.2608 383.27C99.5129 383.024 100.791 382.933 102.065 382.998C105.346 382.998 106.155 383.112 107.237 383.746C108.319 384.381 108.718 385.48 108.764 387.825H105.768C105.676 385.74 105.289 385.502 101.986 385.502C99.7075 385.502 98.8759 385.763 98.4431 386.636C98.1355 387.293 98.0671 388.029 98.0671 390.862C98.0671 393.695 98.1355 394.692 98.4203 395.292C98.8304 396.165 99.7189 396.426 102.202 396.426C103.956 396.426 104.834 396.256 105.244 395.859C105.754 395.129 105.977 394.238 105.87 393.355C105.87 393.276 105.87 393.004 105.87 392.72H101.826V390.454H108.855Z" fill="white"/>
<path d="M127.365 383.112V393.525C127.517 394.837 127.22 396.163 126.522 397.287C125.987 397.94 125.257 398.408 124.438 398.624C123.221 398.842 121.982 398.918 120.747 398.851C119.273 398.975 117.789 398.801 116.384 398.341C114.664 397.615 114.106 396.482 114.106 393.65V383.066H117.17V393.65C117.17 395.916 117.649 396.278 120.758 396.278C123.868 396.278 124.301 395.95 124.301 393.525V383.066L127.365 383.112Z" fill="white"/>
<path d="M135.692 395.757L134.713 398.759H131.5L136.82 383.111H141.377L146.787 398.759H143.644L142.618 395.757H135.692ZM139.11 385.412L136.387 393.524H141.866L139.11 385.412Z" fill="white"/>
<path d="M151.253 383.111H159.101C162.952 383.111 164.273 384.244 164.273 387.78C164.273 390.896 163.726 391.746 161.403 392.187V392.312C163.214 392.403 164.125 393.445 164.102 395.36V398.759H161.015V395.949C161.015 394.227 160.32 393.502 158.623 393.547H154.317V398.759H151.253V383.111ZM158.6 391.043C159.282 391.123 159.971 390.954 160.537 390.567C161.038 390.171 161.163 389.706 161.163 388.369C161.163 386.159 160.776 385.74 158.817 385.74H154.317V391.043H158.6Z" fill="white"/>
<path d="M169.616 383.111H177.487C179.685 383.111 181.075 383.531 181.987 384.448C183.126 385.582 183.513 386.93 183.513 389.661C183.513 393.876 183.376 395.167 182.841 396.267C181.964 397.989 180.358 398.759 177.578 398.759H169.604L169.616 383.111ZM176.986 396.176C178.444 396.176 179.264 395.893 179.731 395.235C180.198 394.578 180.403 393.57 180.403 390.896C180.403 388.222 180.289 387.292 179.777 386.601C179.264 385.91 178.637 385.717 177.168 385.717H172.668V396.176H176.986Z" fill="white"/>
<path d="M56.4777 387.746C55.5702 387.748 54.6896 387.44 53.983 386.874L41.3387 376.823C40.7991 376.405 40.3793 375.853 40.1214 375.222C39.8636 374.592 39.7766 373.905 39.8693 373.231L42.4437 357.368C42.5542 356.692 42.8421 356.058 43.2781 355.529C43.7141 354.999 44.2829 354.594 44.927 354.354L60.2026 348.575C60.8532 348.331 61.5562 348.26 62.243 348.367C62.9298 348.474 63.5769 348.757 64.1212 349.187L76.7655 359.237C77.3003 359.665 77.7124 360.225 77.9604 360.862C78.2084 361.498 78.2834 362.189 78.178 362.863L75.6036 378.727C75.4964 379.403 75.2098 380.039 74.7733 380.569C74.3368 381.099 73.7662 381.503 73.1203 381.741L57.9016 387.519C57.4444 387.679 56.9621 387.756 56.4777 387.746ZM61.6607 349.731C61.3452 349.73 61.0323 349.788 60.738 349.901L45.4623 355.679C45.0447 355.833 44.6757 356.095 44.3934 356.437C44.1111 356.78 43.9257 357.191 43.8562 357.628L41.2818 373.492C41.2271 373.918 41.2844 374.35 41.4481 374.747C41.6119 375.145 41.8764 375.493 42.2158 375.758L54.8601 385.82C55.2136 386.098 55.633 386.28 56.078 386.349C56.5229 386.419 56.9784 386.373 57.4004 386.216L72.6532 380.46C73.0696 380.305 73.4374 380.042 73.7194 379.7C74.0014 379.358 74.1876 378.948 74.2594 378.511L76.8338 362.648C76.9045 362.212 76.8574 361.765 76.6973 361.353C76.5371 360.94 76.2698 360.578 75.9225 360.302L63.2782 350.241C62.8104 349.898 62.2417 349.718 61.6607 349.731Z" fill="white"/>
<path fill-rule="evenodd" clip-rule="evenodd" d="M81.003 347.986L77.802 345.255C77.7158 345.177 77.6089 345.124 77.4939 345.104C77.3789 345.084 77.2606 345.097 77.1527 345.142L73.1886 346.479C73.0774 346.513 72.9776 346.576 72.8994 346.662C72.8213 346.747 72.7677 346.852 72.7443 346.966L71.9583 351.011C71.9367 351.122 71.9443 351.236 71.9802 351.344C72.0161 351.451 72.0792 351.547 72.1634 351.623L75.3643 354.354C75.4506 354.432 75.5574 354.484 75.6724 354.504C75.7874 354.524 75.9057 354.511 76.0136 354.467L79.9891 353.13C80.0992 353.099 80.1982 353.038 80.2748 352.954C80.3515 352.87 80.4025 352.766 80.422 352.654L81.2194 348.597C81.2364 348.486 81.2255 348.371 81.1878 348.265C81.1501 348.158 81.0866 348.062 81.003 347.986Z" fill="white"/>
<path fill-rule="evenodd" clip-rule="evenodd" d="M71.047 360.325L60.1342 354.161C59.8498 354.005 59.5304 353.923 59.2058 353.923C58.8812 353.923 58.5618 354.005 58.2774 354.161L47.3646 360.325C47.0831 360.481 46.849 360.71 46.6867 360.987C46.5244 361.264 46.4398 361.579 46.4419 361.9V374.251C46.4422 374.571 46.5277 374.885 46.6898 375.162C46.8519 375.438 47.0847 375.667 47.3646 375.826L58.2774 381.99C58.5618 382.145 58.8812 382.227 59.2058 382.227C59.5304 382.227 59.8498 382.145 60.1342 381.99L71.047 375.826C71.3306 375.671 71.5671 375.443 71.7315 375.166C71.8958 374.888 71.9821 374.572 71.9811 374.251V361.9C71.9797 361.578 71.8924 361.263 71.7283 360.987C71.5642 360.71 71.329 360.481 71.047 360.325ZM67.0829 364.245L65.1805 367.452C65.1187 367.55 65.0329 367.63 64.9313 367.685C64.8297 367.741 64.7155 367.77 64.5996 367.769H60.7379C60.6248 367.771 60.5131 367.743 60.4148 367.687C60.3165 367.631 60.2353 367.55 60.1798 367.452L58.2546 364.223C58.1988 364.122 58.1695 364.009 58.1695 363.894C58.1695 363.779 58.1988 363.666 58.2546 363.565L60.157 360.325C60.2196 360.228 60.3055 360.148 60.407 360.093C60.5084 360.037 60.6222 360.008 60.7379 360.008H64.5996C64.7108 360.007 64.8201 360.037 64.9162 360.092C65.0123 360.148 65.0917 360.228 65.1463 360.325L67.0829 363.565C67.1328 363.662 67.1589 363.769 67.1589 363.877C67.1589 363.985 67.1328 364.092 67.0829 364.189V364.245Z" fill="white"/>
<path fill-rule="evenodd" clip-rule="evenodd" d="M88.362 354.739C88.3945 354.757 88.4219 354.783 88.4418 354.815C88.4616 354.847 88.4734 354.883 88.4759 354.92V357.186C88.4756 357.224 88.4648 357.261 88.4447 357.293C88.4246 357.325 88.396 357.351 88.362 357.367L86.3913 358.5C86.3617 358.523 86.3257 358.534 86.2888 358.534C86.2518 358.534 86.2158 358.523 86.1863 358.5L84.2383 357.367C84.2043 357.349 84.1752 357.324 84.1534 357.292C84.1315 357.26 84.1177 357.224 84.113 357.186V354.92C84.1207 354.883 84.1358 354.848 84.1573 354.817C84.1788 354.786 84.2064 354.759 84.2383 354.739L86.209 353.606C86.2386 353.583 86.2746 353.572 86.3115 353.572C86.3485 353.572 86.3845 353.583 86.4141 353.606L88.362 354.739Z" fill="white"/>
<path d="M358.306 120.053C366.687 109.854 372.513 100.799 371.32 99.8285C370.126 98.8582 362.365 106.34 353.984 116.54C345.604 126.739 339.777 135.794 340.971 136.764C342.164 137.735 349.926 130.253 358.306 120.053Z" fill="#7B3767"/>
<path d="M340.974 136.754L339.163 135.371L369.497 98.4324L371.286 99.8034L357.776 119.463L340.974 136.754Z" fill="#7B3767"/>
<path d="M369.475 98.4205C368.7 97.8086 361.285 105.582 352.912 115.78C344.539 125.977 338.32 134.748 339.14 135.36C339.14 135.36 339.14 135.36 339.22 135.36C340.359 135.507 347.57 127.881 355.714 117.966C364.087 107.791 370.215 99.0324 369.475 98.4205Z" fill="#E9ACCE"/>
<path d="M359.644 110.681L349.29 123.292C349.181 123.42 349.027 123.502 348.86 123.521C348.693 123.54 348.524 123.495 348.39 123.394L217.698 26.5711L205.441 0L235.138 5.32556L359.553 109.809C359.618 109.859 359.671 109.922 359.711 109.994C359.751 110.065 359.775 110.144 359.784 110.226C359.792 110.307 359.784 110.389 359.76 110.467C359.736 110.546 359.697 110.618 359.644 110.681Z" fill="white"/>
<path d="M205.466 0.0634766L217.701 26.578L348.392 123.401C348.527 123.501 348.695 123.547 348.862 123.528C349.03 123.509 349.183 123.427 349.292 123.299L354.145 117.384L205.466 0.0634766Z" fill="#EDEDED"/>
</g>
<defs>
<clipPath id="clip0">
<rect width="394" height="757" fill="white"/>
</clipPath>
</defs>
</svg>
