<?xml version="1.0" encoding="UTF-8"?>
<svg width="741px" height="488px" viewBox="0 0 741 488" version="1.1" xmlns="http://www.w3.org/2000/svg" xmlns:xlink="http://www.w3.org/1999/xlink">
    <title>Illustration Protected Server</title>
    <defs>
        <polygon id="path-1" points="39.4919393 205.474675 110.272862 186.439022 91.5865043 257.563043 20.1886653 276.523219"></polygon>
        <filter x="-101.0%" y="-98.8%" width="302.0%" height="302.0%" filterUnits="objectBoundingBox" id="filter-2">
            <feOffset dx="0" dy="2" in="SourceAlpha" result="shadowOffsetOuter1"></feOffset>
            <feGaussianBlur stdDeviation="30" in="shadowOffsetOuter1" result="shadowBlurOuter1"></feGaussianBlur>
            <feColorMatrix values="0 0 0 0 0.138700181   0 0 0 0 0   0 0 0 0 0.0874878066  0 0 0 1 0" type="matrix" in="shadowBlurOuter1"></feColorMatrix>
        </filter>
        <polygon id="path-3" points="48.4919393 200.474675 119.272862 181.439022 100.586504 252.563043 29.1886653 271.523219"></polygon>
        <filter x="-101.0%" y="-98.8%" width="302.0%" height="302.0%" filterUnits="objectBoundingBox" id="filter-4">
            <feOffset dx="0" dy="2" in="SourceAlpha" result="shadowOffsetOuter1"></feOffset>
            <feGaussianBlur stdDeviation="30" in="shadowOffsetOuter1" result="shadowBlurOuter1"></feGaussianBlur>
            <feColorMatrix values="0 0 0 0 0.138700181   0 0 0 0 0   0 0 0 0 0.0874878066  0 0 0 1 0" type="matrix" in="shadowBlurOuter1"></feColorMatrix>
        </filter>
        <polygon id="path-5" points="38.9603221 208.035654 109.741245 189 91.054887 260.124021 19.6570481 279.084197"></polygon>
        <filter x="-101.0%" y="-98.8%" width="302.0%" height="302.0%" filterUnits="objectBoundingBox" id="filter-6">
            <feOffset dx="0" dy="2" in="SourceAlpha" result="shadowOffsetOuter1"></feOffset>
            <feGaussianBlur stdDeviation="30" in="shadowOffsetOuter1" result="shadowBlurOuter1"></feGaussianBlur>
            <feColorMatrix values="0 0 0 0 0.138700181   0 0 0 0 0   0 0 0 0 0.0874878066  0 0 0 1 0" type="matrix" in="shadowBlurOuter1"></feColorMatrix>
        </filter>
        <linearGradient x1="30.3366827%" y1="67.6458418%" x2="92.6676758%" y2="42.6915596%" id="linearGradient-7">
            <stop stop-color="#1E0013" stop-opacity="0.207905376" offset="0%"></stop>
            <stop stop-color="#360022" offset="100%"></stop>
        </linearGradient>
        <filter x="-18.7%" y="-21.8%" width="137.5%" height="143.6%" filterUnits="objectBoundingBox" id="filter-8">
            <feGaussianBlur stdDeviation="10" in="SourceGraphic"></feGaussianBlur>
        </filter>
        <linearGradient x1="91.8308507%" y1="60.1896895%" x2="7.45011514%" y2="60.1896895%" id="linearGradient-9">
            <stop stop-color="#1E0013" stop-opacity="0.207905376" offset="0%"></stop>
            <stop stop-color="#360022" offset="100%"></stop>
        </linearGradient>
        <filter x="-23.5%" y="-31.1%" width="147.0%" height="162.3%" filterUnits="objectBoundingBox" id="filter-10">
            <feGaussianBlur stdDeviation="10" in="SourceGraphic"></feGaussianBlur>
        </filter>
        <linearGradient x1="100%" y1="50%" x2="0%" y2="50%" id="linearGradient-11">
            <stop stop-color="#DC5C5C" stop-opacity="0" offset="0%"></stop>
            <stop stop-color="#FF193C" stop-opacity="0.629643794" offset="100%"></stop>
        </linearGradient>
    </defs>
    <g id="Landingpage" stroke="none" stroke-width="1" fill="none" fill-rule="evenodd">
        <g id="new_immune_landingpage_v2" transform="translate(17.000000, -128.000000)">
            <g id="illu_protectet_server" transform="translate(69.000000, 128.000000)">
                <g id="server3" transform="translate(180.000000, 0.000000)">
                    <g id="Rectangle" transform="translate(65.230764, 231.481120) rotate(45.000000) translate(-65.230764, -231.481120) " fill="black" fill-opacity="1">
                        <use filter="url(#filter-2)" xlink:href="#path-1"></use>
                    </g>
                    <polygon id="Rectangle" fill="#FFBDE7" transform="translate(64.699147, 64.042098) rotate(45.000000) translate(-64.699147, -64.042098) " points="38.9603221 38.0356536 109.741245 19 91.054887 90.1240215 19.6570481 109.084197"></polygon>
                    <polygon id="side" fill="#CD85B2" points="1 64.0420985 64.8927647 101.121126 64.8927647 250.250631 1 213.512953"></polygon>
                    <path d="M49.9723439,110.438499 L52.476305,111.899494 C53.0906387,112.257941 53.4683827,112.915687 53.4683827,113.626946 L53.4683827,158.67233 C53.4683827,159.224614 53.0206675,159.67233 52.4683827,159.67233 C52.2916381,159.67233 52.118051,159.625486 51.9653014,159.536569 L49.46222,158.079502 C48.8468932,157.721315 48.4683827,157.063011 48.4683827,156.351024 L48.4683827,111.302226 C48.4683827,110.749941 48.916098,110.302226 49.4683827,110.302226 C49.6454728,110.302226 49.8193866,110.349253 49.9723439,110.438499 Z" id="Rectangle" fill="#FFD6F0" transform="translate(50.968383, 134.986252) scale(-1, -1) translate(-50.968383, -134.986252) "></path>
                    <polygon id="front" fill="#914073" transform="translate(96.645529, 157.146365) scale(-1, 1) translate(-96.645529, -157.146365) " points="64.8927647 64.0420985 128.398293 101.121126 128.398293 250.250631 64.8927647 213.470954"></polygon>
                    <path d="M76.9684733,109.937968 L115.968473,87.4267425 C116.446795,87.1506501 117.058368,87.3145892 117.33446,87.7929106 C117.422195,87.9449083 117.468383,88.1173189 117.468383,88.2928201 L117.468383,176.094855 C117.468383,176.45225 117.277647,176.782477 116.968068,176.961062 L77.9680683,199.458846 C77.4896754,199.734814 76.8781445,199.570717 76.6021758,199.092324 C76.5145242,198.94038 76.4683827,198.768052 76.4683827,198.592639 L76.4683827,110.804045 C76.4683827,110.446742 76.6590212,110.116587 76.9684733,109.937968 Z" id="front_dark" fill="#410029" transform="translate(96.968383, 143.442471) scale(-1, -1) translate(-96.968383, -143.442471) "></path>
                    <g id="lines" transform="translate(0.386436, 26.600755)" fill="#410029">
                        <polygon id="Path" points="39.7755642 15.0139128 59.2220577 26.6198404 57.792347 27.4649703 20 48.681 20 197.935421 19.7845642 197.934913 17.9995642 196.908913 18 47.51153 54.02 27.289 55.2419601 26.6198404 37.8525642 16.1149128"></polygon>
                        <polygon id="Path" points="102.820302 22.9279128 104.831302 24.0859128 40.464 60.57 40.464 152.166 53.8575399 171.431984 53.8573018 217.525913 51.8573018 216.375913 51.857 172.059 38.4643018 152.793491 38.4643018 59.4052296"></polygon>
                        <polygon id="Path" points="128.011329 153.521344 128.011329 155.831344 78.267 184.579 78.2663289 215.680344 76.2663289 216.838344 76.2671657 183.426017"></polygon>
                    </g>
                    <g id="screws" transform="translate(2.468383, 68.560978)" fill="#410029">
                        <ellipse id="Oval" cx="1.1" cy="142.5" rx="1.1" ry="1.5"></ellipse>
                        <ellipse id="Oval" cx="1.1" cy="1.5" rx="1.1" ry="1.5"></ellipse>
                        <ellipse id="Oval" cx="59.25" cy="35.5" rx="1.25" ry="1.5"></ellipse>
                        <ellipse id="Oval" cx="59.25" cy="176.5" rx="1.25" ry="1.5"></ellipse>
                        <ellipse id="Oval-Copy" transform="translate(65.150000, 176.328969) rotate(7.000000) translate(-65.150000, -176.328969) " cx="65.15" cy="176.328969" rx="1.15" ry="1.5"></ellipse>
                        <ellipse id="Oval-Copy" transform="translate(65.324232, 35.628969) rotate(7.000000) translate(-65.324232, -35.628969) " cx="65.3242321" cy="35.628969" rx="1.15" ry="1.5"></ellipse>
                        <ellipse id="Oval-Copy" transform="translate(123.324232, 1.628969) rotate(7.000000) translate(-123.324232, -1.628969) " cx="123.324232" cy="1.62896897" rx="1.15" ry="1.5"></ellipse>
                        <ellipse id="Oval-Copy" transform="translate(123.324232, 142.628969) rotate(7.000000) translate(-123.324232, -142.628969) " cx="123.324232" cy="142.628969" rx="1.15" ry="1.5"></ellipse>
                    </g>
                    <path d="M100.467031,208.502458 L110.967707,202.428956 C111.445784,202.152441 112.057502,202.315839 112.334018,202.793915 C112.422037,202.946095 112.468383,203.11879 112.468383,203.294591 L112.468383,205.915547 C112.468383,206.451046 112.182907,206.94593 111.719351,207.214026 L100.969028,213.431415 C100.490941,213.707914 99.879229,213.544495 99.6027302,213.066408 C99.5147221,212.914236 99.4683827,212.741552 99.4683827,212.565763 L99.4683827,210.233727 C99.4683827,209.519754 99.8489908,208.859927 100.467031,208.502458 Z" id="Rectangle" fill="#FFD6F0"></path>
                    <path d="M99.9543827,120.561154 L99.9543827,125.180154 L83.4683827,134.699062 L81.4683827,135.900832 L81.4683827,131.234961 L99.9543827,120.561154 Z M105.954383,117.097154 L105.954383,121.716154 L102.954383,123.448154 L102.954383,118.829154 L105.954383,117.097154 Z M112.031816,113.589154 L112.030059,113.729573 L112.030059,118.074064 L112.035675,118.205729 L108.954383,119.984154 L108.954383,115.365154 L112.031816,113.589154 Z" id="Combined-Shape" fill="#FFD6F0" fill-rule="nonzero"></path>
                    <path d="M99.9543827,107.532978 L99.9543827,112.151978 L83.4683827,121.670887 L81.4683827,122.872656 L81.4683827,118.206785 L99.9543827,107.532978 Z M105.954383,104.068978 L105.954383,108.687978 L102.954383,110.419978 L102.954383,105.800978 L105.954383,104.068978 Z M112.031816,100.560978 L112.030059,100.701397 L112.030059,105.045888 L112.035675,105.177553 L108.954383,106.955978 L108.954383,102.336978 L112.031816,100.560978 Z" id="Combined-Shape" fill="#FFD6F0" fill-rule="nonzero"></path>
                    <path d="M99.9543827,133.558942 L99.9543827,138.176942 L83.4683827,147.699062 L81.4683827,148.900832 L81.4683827,144.234961 L99.9543827,133.558942 Z M105.954383,130.093942 L105.954383,134.710942 L102.954383,136.443942 L102.954383,131.826942 L105.954383,130.093942 Z M112.030059,126.585942 L112.030059,131.117091 L112.028383,131.20448 L108.954383,132.978942 L108.954383,128.361942 L112.030059,126.585942 Z" id="Combined-Shape" fill="#FFD6F0" fill-rule="nonzero"></path>
                    <path d="M99.9543827,146.533978 L99.9543827,151.151978 L83.4683827,160.674099 L81.4683827,161.875869 L81.4683827,157.209997 L99.9543827,146.533978 Z M105.954383,143.068978 L105.954383,147.685978 L102.954383,149.418978 L102.954383,144.801978 L105.954383,143.068978 Z M112.030059,139.560978 L112.030059,144.092128 L112.028383,144.179516 L108.954383,145.953978 L108.954383,141.336978 L112.030059,139.560978 Z" id="Combined-Shape" fill="#FFD6F0" fill-rule="nonzero"></path>
                    <path d="M99.9543827,159.533978 L99.9543827,164.151978 L83.4683827,173.674099 L81.4683827,174.875869 L81.4683827,170.209997 L99.9543827,159.533978 Z M105.954383,156.068978 L105.954383,160.685978 L102.954383,162.418978 L102.954383,157.801978 L105.954383,156.068978 Z M112.030059,152.560978 L112.030059,157.092128 L112.028383,157.179516 L108.954383,158.953978 L108.954383,154.336978 L112.030059,152.560978 Z" id="Combined-Shape" fill="#FFD6F0" fill-rule="nonzero"></path>
                    <path d="M99.9543827,172.533978 L99.9543827,177.151978 L83.4683827,186.674099 L81.4683827,187.875869 L81.4683827,183.209997 L99.9543827,172.533978 Z M105.954383,169.068978 L105.954383,173.685978 L102.954383,175.418978 L102.954383,170.801978 L105.954383,169.068978 Z M112.030059,165.560978 L112.030059,170.092128 L112.028383,170.179516 L108.954383,171.953978 L108.954383,167.336978 L112.030059,165.560978 Z" id="Combined-Shape" fill="#FFD6F0" fill-rule="nonzero"></path>
                </g>
                <g id="server2" transform="translate(90.000000, 52.000000)">
                    <g id="Rectangle" transform="translate(74.230764, 226.481120) rotate(45.000000) translate(-74.230764, -226.481120) " fill="black" fill-opacity="1">
                        <use filter="url(#filter-4)" xlink:href="#path-3"></use>
                    </g>
                    <polygon id="Rectangle" fill="#FFBDE7" transform="translate(64.699147, 64.042098) rotate(45.000000) translate(-64.699147, -64.042098) " points="38.9603221 38.0356536 109.741245 19 91.054887 90.1240215 19.6570481 109.084197"></polygon>
                    <polygon id="side" fill="#CD85B2" points="1 64.0420985 64.8927647 101.121126 64.8927647 250.250631 1 213.512953"></polygon>
                    <path d="M49.9723439,110.438499 L52.476305,111.899494 C53.0906387,112.257941 53.4683827,112.915687 53.4683827,113.626946 L53.4683827,158.67233 C53.4683827,159.224614 53.0206675,159.67233 52.4683827,159.67233 C52.2916381,159.67233 52.118051,159.625486 51.9653014,159.536569 L49.46222,158.079502 C48.8468932,157.721315 48.4683827,157.063011 48.4683827,156.351024 L48.4683827,111.302226 C48.4683827,110.749941 48.916098,110.302226 49.4683827,110.302226 C49.6454728,110.302226 49.8193866,110.349253 49.9723439,110.438499 Z" id="Rectangle" fill="#FFD6F0" transform="translate(50.968383, 134.986252) scale(-1, -1) translate(-50.968383, -134.986252) "></path>
                    <polygon id="front" fill="#914073" transform="translate(96.645529, 157.146365) scale(-1, 1) translate(-96.645529, -157.146365) " points="64.8927647 64.0420985 128.398293 101.121126 128.398293 250.250631 64.8927647 213.470954"></polygon>
                    <path d="M76.9684733,109.937968 L115.968473,87.4267425 C116.446795,87.1506501 117.058368,87.3145892 117.33446,87.7929106 C117.422195,87.9449083 117.468383,88.1173189 117.468383,88.2928201 L117.468383,176.094855 C117.468383,176.45225 117.277647,176.782477 116.968068,176.961062 L77.9680683,199.458846 C77.4896754,199.734814 76.8781445,199.570717 76.6021758,199.092324 C76.5145242,198.94038 76.4683827,198.768052 76.4683827,198.592639 L76.4683827,110.804045 C76.4683827,110.446742 76.6590212,110.116587 76.9684733,109.937968 Z" id="front_dark" fill="#410029" transform="translate(96.968383, 143.442471) scale(-1, -1) translate(-96.968383, -143.442471) "></path>
                    <g id="lines" transform="translate(0.386436, 26.600755)" fill="#410029">
                        <polygon id="Path" points="39.7755642 15.0139128 59.2220577 26.6198404 57.792347 27.4649703 20 48.681 20 197.935421 19.7845642 197.934913 17.9995642 196.908913 18 47.51153 54.02 27.289 55.2419601 26.6198404 37.8525642 16.1149128"></polygon>
                        <polygon id="Path" points="102.820302 22.9279128 104.831302 24.0859128 40.464 60.57 40.464 152.166 53.8575399 171.431984 53.8573018 217.525913 51.8573018 216.375913 51.857 172.059 38.4643018 152.793491 38.4643018 59.4052296"></polygon>
                        <polygon id="Path" points="128.011329 153.521344 128.011329 155.831344 78.267 184.579 78.2663289 215.680344 76.2663289 216.838344 76.2671657 183.426017"></polygon>
                    </g>
                    <g id="screws" transform="translate(2.468383, 68.560978)" fill="#410029">
                        <ellipse id="Oval" cx="1.1" cy="142.5" rx="1.1" ry="1.5"></ellipse>
                        <ellipse id="Oval" cx="1.1" cy="1.5" rx="1.1" ry="1.5"></ellipse>
                        <ellipse id="Oval" cx="59.25" cy="35.5" rx="1.25" ry="1.5"></ellipse>
                        <ellipse id="Oval" cx="59.25" cy="176.5" rx="1.25" ry="1.5"></ellipse>
                        <ellipse id="Oval-Copy" transform="translate(65.150000, 176.328969) rotate(7.000000) translate(-65.150000, -176.328969) " cx="65.15" cy="176.328969" rx="1.15" ry="1.5"></ellipse>
                        <ellipse id="Oval-Copy" transform="translate(65.324232, 35.628969) rotate(7.000000) translate(-65.324232, -35.628969) " cx="65.3242321" cy="35.628969" rx="1.15" ry="1.5"></ellipse>
                        <ellipse id="Oval-Copy" transform="translate(123.324232, 1.628969) rotate(7.000000) translate(-123.324232, -1.628969) " cx="123.324232" cy="1.62896897" rx="1.15" ry="1.5"></ellipse>
                        <ellipse id="Oval-Copy" transform="translate(123.324232, 142.628969) rotate(7.000000) translate(-123.324232, -142.628969) " cx="123.324232" cy="142.628969" rx="1.15" ry="1.5"></ellipse>
                    </g>
                    <path d="M100.467031,208.502458 L110.967707,202.428956 C111.445784,202.152441 112.057502,202.315839 112.334018,202.793915 C112.422037,202.946095 112.468383,203.11879 112.468383,203.294591 L112.468383,205.915547 C112.468383,206.451046 112.182907,206.94593 111.719351,207.214026 L100.969028,213.431415 C100.490941,213.707914 99.879229,213.544495 99.6027302,213.066408 C99.5147221,212.914236 99.4683827,212.741552 99.4683827,212.565763 L99.4683827,210.233727 C99.4683827,209.519754 99.8489908,208.859927 100.467031,208.502458 Z" id="Rectangle" fill="#FFD6F0"></path>
                    <path d="M99.9543827,120.561154 L99.9543827,125.180154 L83.4683827,134.699062 L81.4683827,135.900832 L81.4683827,131.234961 L99.9543827,120.561154 Z M105.954383,117.097154 L105.954383,121.716154 L102.954383,123.448154 L102.954383,118.829154 L105.954383,117.097154 Z M112.031816,113.589154 L112.030059,113.729573 L112.030059,118.074064 L112.035675,118.205729 L108.954383,119.984154 L108.954383,115.365154 L112.031816,113.589154 Z" id="Combined-Shape" fill="#FFD6F0" fill-rule="nonzero"></path>
                    <path d="M99.9543827,107.532978 L99.9543827,112.151978 L83.4683827,121.670887 L81.4683827,122.872656 L81.4683827,118.206785 L99.9543827,107.532978 Z M105.954383,104.068978 L105.954383,108.687978 L102.954383,110.419978 L102.954383,105.800978 L105.954383,104.068978 Z M112.031816,100.560978 L112.030059,100.701397 L112.030059,105.045888 L112.035675,105.177553 L108.954383,106.955978 L108.954383,102.336978 L112.031816,100.560978 Z" id="Combined-Shape" fill="#FFD6F0" fill-rule="nonzero"></path>
                    <path d="M99.9543827,133.558942 L99.9543827,138.176942 L83.4683827,147.699062 L81.4683827,148.900832 L81.4683827,144.234961 L99.9543827,133.558942 Z M105.954383,130.093942 L105.954383,134.710942 L102.954383,136.443942 L102.954383,131.826942 L105.954383,130.093942 Z M112.030059,126.585942 L112.030059,131.117091 L112.028383,131.20448 L108.954383,132.978942 L108.954383,128.361942 L112.030059,126.585942 Z" id="Combined-Shape" fill="#FFD6F0" fill-rule="nonzero"></path>
                    <path d="M99.9543827,146.533978 L99.9543827,151.151978 L83.4683827,160.674099 L81.4683827,161.875869 L81.4683827,157.209997 L99.9543827,146.533978 Z M105.954383,143.068978 L105.954383,147.685978 L102.954383,149.418978 L102.954383,144.801978 L105.954383,143.068978 Z M112.030059,139.560978 L112.030059,144.092128 L112.028383,144.179516 L108.954383,145.953978 L108.954383,141.336978 L112.030059,139.560978 Z" id="Combined-Shape" fill="#FFD6F0" fill-rule="nonzero"></path>
                    <path d="M99.9543827,159.533978 L99.9543827,164.151978 L83.4683827,173.674099 L81.4683827,174.875869 L81.4683827,170.209997 L99.9543827,159.533978 Z M105.954383,156.068978 L105.954383,160.685978 L102.954383,162.418978 L102.954383,157.801978 L105.954383,156.068978 Z M112.030059,152.560978 L112.030059,157.092128 L112.028383,157.179516 L108.954383,158.953978 L108.954383,154.336978 L112.030059,152.560978 Z" id="Combined-Shape" fill="#FFD6F0" fill-rule="nonzero"></path>
                    <path d="M99.9543827,172.533978 L99.9543827,177.151978 L83.4683827,186.674099 L81.4683827,187.875869 L81.4683827,183.209997 L99.9543827,172.533978 Z M105.954383,169.068978 L105.954383,173.685978 L102.954383,175.418978 L102.954383,170.801978 L105.954383,169.068978 Z M112.030059,165.560978 L112.030059,170.092128 L112.028383,170.179516 L108.954383,171.953978 L108.954383,167.336978 L112.030059,165.560978 Z" id="Combined-Shape" fill="#FFD6F0" fill-rule="nonzero"></path>
                </g>
                <g id="server1" transform="translate(0.000000, 104.000000)">
                    <g id="Rectangle" transform="translate(64.699147, 234.042098) rotate(45.000000) translate(-64.699147, -234.042098) " fill="black" fill-opacity="1">
                        <use filter="url(#filter-6)" xlink:href="#path-5"></use>
                    </g>
                    <polygon id="Rectangle" fill="#FFBDE7" transform="translate(64.699147, 64.042098) rotate(45.000000) translate(-64.699147, -64.042098) " points="38.9603221 38.0356536 109.741245 19 91.054887 90.1240215 19.6570481 109.084197"></polygon>
                    <polygon id="side" fill="#CD85B2" points="1 64.0420985 64.8927647 101.121126 64.8927647 250.250631 1 213.512953"></polygon>
                    <path d="M49.9723439,110.438499 L52.476305,111.899494 C53.0906387,112.257941 53.4683827,112.915687 53.4683827,113.626946 L53.4683827,158.67233 C53.4683827,159.224614 53.0206675,159.67233 52.4683827,159.67233 C52.2916381,159.67233 52.118051,159.625486 51.9653014,159.536569 L49.46222,158.079502 C48.8468932,157.721315 48.4683827,157.063011 48.4683827,156.351024 L48.4683827,111.302226 C48.4683827,110.749941 48.916098,110.302226 49.4683827,110.302226 C49.6454728,110.302226 49.8193866,110.349253 49.9723439,110.438499 Z" id="Rectangle" fill="#FFD6F0" transform="translate(50.968383, 134.986252) scale(-1, -1) translate(-50.968383, -134.986252) "></path>
                    <polygon id="front" fill="#914073" transform="translate(96.645529, 157.146365) scale(-1, 1) translate(-96.645529, -157.146365) " points="64.8927647 64.0420985 128.398293 101.121126 128.398293 250.250631 64.8927647 213.470954"></polygon>
                    <path d="M76.9684733,109.937968 L115.968473,87.4267425 C116.446795,87.1506501 117.058368,87.3145892 117.33446,87.7929106 C117.422195,87.9449083 117.468383,88.1173189 117.468383,88.2928201 L117.468383,176.094855 C117.468383,176.45225 117.277647,176.782477 116.968068,176.961062 L77.9680683,199.458846 C77.4896754,199.734814 76.8781445,199.570717 76.6021758,199.092324 C76.5145242,198.94038 76.4683827,198.768052 76.4683827,198.592639 L76.4683827,110.804045 C76.4683827,110.446742 76.6590212,110.116587 76.9684733,109.937968 Z" id="front_dark" fill="#410029" transform="translate(96.968383, 143.442471) scale(-1, -1) translate(-96.968383, -143.442471) "></path>
                    <g id="lines" transform="translate(0.386436, 26.600755)" fill="#410029">
                        <polygon id="Path" points="39.7755642 15.0139128 59.2220577 26.6198404 57.792347 27.4649703 20 48.681 20 197.935421 19.7845642 197.934913 17.9995642 196.908913 18 47.51153 54.02 27.289 55.2419601 26.6198404 37.8525642 16.1149128"></polygon>
                        <polygon id="Path" points="102.820302 22.9279128 104.831302 24.0859128 40.464 60.57 40.464 152.166 53.8575399 171.431984 53.8573018 217.525913 51.8573018 216.375913 51.857 172.059 38.4643018 152.793491 38.4643018 59.4052296"></polygon>
                        <polygon id="Path" points="128.011329 153.521344 128.011329 155.831344 78.267 184.579 78.2663289 215.680344 76.2663289 216.838344 76.2671657 183.426017"></polygon>
                    </g>
                    <g id="screws" transform="translate(2.468383, 68.560978)" fill="#410029">
                        <ellipse id="Oval" cx="1.1" cy="142.5" rx="1.1" ry="1.5"></ellipse>
                        <ellipse id="Oval" cx="1.1" cy="1.5" rx="1.1" ry="1.5"></ellipse>
                        <ellipse id="Oval" cx="59.25" cy="35.5" rx="1.25" ry="1.5"></ellipse>
                        <ellipse id="Oval" cx="59.25" cy="176.5" rx="1.25" ry="1.5"></ellipse>
                        <ellipse id="Oval-Copy" transform="translate(65.150000, 176.328969) rotate(7.000000) translate(-65.150000, -176.328969) " cx="65.15" cy="176.328969" rx="1.15" ry="1.5"></ellipse>
                        <ellipse id="Oval-Copy" transform="translate(65.324232, 35.628969) rotate(7.000000) translate(-65.324232, -35.628969) " cx="65.3242321" cy="35.628969" rx="1.15" ry="1.5"></ellipse>
                        <ellipse id="Oval-Copy" transform="translate(123.324232, 1.628969) rotate(7.000000) translate(-123.324232, -1.628969) " cx="123.324232" cy="1.62896897" rx="1.15" ry="1.5"></ellipse>
                        <ellipse id="Oval-Copy" transform="translate(123.324232, 142.628969) rotate(7.000000) translate(-123.324232, -142.628969) " cx="123.324232" cy="142.628969" rx="1.15" ry="1.5"></ellipse>
                    </g>
                    <path d="M100.467031,208.502458 L110.967707,202.428956 C111.445784,202.152441 112.057502,202.315839 112.334018,202.793915 C112.422037,202.946095 112.468383,203.11879 112.468383,203.294591 L112.468383,205.915547 C112.468383,206.451046 112.182907,206.94593 111.719351,207.214026 L100.969028,213.431415 C100.490941,213.707914 99.879229,213.544495 99.6027302,213.066408 C99.5147221,212.914236 99.4683827,212.741552 99.4683827,212.565763 L99.4683827,210.233727 C99.4683827,209.519754 99.8489908,208.859927 100.467031,208.502458 Z" id="Rectangle" fill="#FFD6F0"></path>
                    <path d="M99.9543827,120.561154 L99.9543827,125.180154 L83.4683827,134.699062 L81.4683827,135.900832 L81.4683827,131.234961 L99.9543827,120.561154 Z M105.954383,117.097154 L105.954383,121.716154 L102.954383,123.448154 L102.954383,118.829154 L105.954383,117.097154 Z M112.031816,113.589154 L112.030059,113.729573 L112.030059,118.074064 L112.035675,118.205729 L108.954383,119.984154 L108.954383,115.365154 L112.031816,113.589154 Z" id="Combined-Shape" fill="#FFD6F0" fill-rule="nonzero"></path>
                    <path d="M99.9543827,107.532978 L99.9543827,112.151978 L83.4683827,121.670887 L81.4683827,122.872656 L81.4683827,118.206785 L99.9543827,107.532978 Z M105.954383,104.068978 L105.954383,108.687978 L102.954383,110.419978 L102.954383,105.800978 L105.954383,104.068978 Z M112.031816,100.560978 L112.030059,100.701397 L112.030059,105.045888 L112.035675,105.177553 L108.954383,106.955978 L108.954383,102.336978 L112.031816,100.560978 Z" id="Combined-Shape" fill="#FFD6F0" fill-rule="nonzero"></path>
                    <path d="M99.9543827,133.558942 L99.9543827,138.176942 L83.4683827,147.699062 L81.4683827,148.900832 L81.4683827,144.234961 L99.9543827,133.558942 Z M105.954383,130.093942 L105.954383,134.710942 L102.954383,136.443942 L102.954383,131.826942 L105.954383,130.093942 Z M112.030059,126.585942 L112.030059,131.117091 L112.028383,131.20448 L108.954383,132.978942 L108.954383,128.361942 L112.030059,126.585942 Z" id="Combined-Shape" fill="#FFD6F0" fill-rule="nonzero"></path>
                    <path d="M99.9543827,146.533978 L99.9543827,151.151978 L83.4683827,160.674099 L81.4683827,161.875869 L81.4683827,157.209997 L99.9543827,146.533978 Z M105.954383,143.068978 L105.954383,147.685978 L102.954383,149.418978 L102.954383,144.801978 L105.954383,143.068978 Z M112.030059,139.560978 L112.030059,144.092128 L112.028383,144.179516 L108.954383,145.953978 L108.954383,141.336978 L112.030059,139.560978 Z" id="Combined-Shape" fill="#FFD6F0" fill-rule="nonzero"></path>
                    <path d="M99.9543827,159.533978 L99.9543827,164.151978 L83.4683827,173.674099 L81.4683827,174.875869 L81.4683827,170.209997 L99.9543827,159.533978 Z M105.954383,156.068978 L105.954383,160.685978 L102.954383,162.418978 L102.954383,157.801978 L105.954383,156.068978 Z M112.030059,152.560978 L112.030059,157.092128 L112.028383,157.179516 L108.954383,158.953978 L108.954383,154.336978 L112.030059,152.560978 Z" id="Combined-Shape" fill="#FFD6F0" fill-rule="nonzero"></path>
                    <path d="M99.9543827,172.533978 L99.9543827,177.151978 L83.4683827,186.674099 L81.4683827,187.875869 L81.4683827,183.209997 L99.9543827,172.533978 Z M105.954383,169.068978 L105.954383,173.685978 L102.954383,175.418978 L102.954383,170.801978 L105.954383,169.068978 Z M112.030059,165.560978 L112.030059,170.092128 L112.028383,170.179516 L108.954383,171.953978 L108.954383,167.336978 L112.030059,165.560978 Z" id="Combined-Shape" fill="#FFD6F0" fill-rule="nonzero"></path>
                </g>
                <g id="immune_guard_shield" transform="translate(202.000000, 133.000000)">
                    <polygon id="shadow_front" fill="url(#linearGradient-7)" filter="url(#filter-8)" points="160.512399 245 98.685 310.706149 0.468382737 245 95.4683827 173"></polygon>
                    <polygon id="shadow_back" fill="url(#linearGradient-9)" filter="url(#filter-10)" points="162.385187 241.853075 249.197982 215.565689 199.426349 145.48112 121.59845 198.117015"></polygon>
                    <g id="Long-version" transform="translate(43.000000, 0.000000)">
                        <g id="immune_landingpage-copy">
                            <g id="shield">
                                <polygon id="Path-8" fill="#FFBDE7" points="0 81.53 63.95 24.49 111.37 55.11 48.04 110.11"></polygon>
                                <path d="M2.4,193.49 C1.14666667,190.75 0.346666667,186.506667 0,180.76 L0,81.53 L48,110.11 L48,210.11 C48.4418484,214.017566 49.7540184,217.776386 51.84,221.11 C54.186114,225.010359 57.1632203,228.494351 60.65,231.42 L48,223.91 L9.6,201.83 C6.05,199 3.64,196.23 2.4,193.49 Z" id="Path-9" fill="#CD85B2"></path>
                                <polygon id="Path-10" fill="#FFD6F0" points="63.95 24.49 127.07 0 176.53 30.15 111.37 55.11"></polygon>
                                <path d="M176.53,30.15 L176.53,134.28 C171.07,152.753333 162.72,171.91 151.48,191.75 C140.993121,210.521195 128.507214,228.10339 114.24,244.19 C92.42,242.303333 79.2566667,240.82 74.75,239.74 C70.2433333,238.66 65.5566667,235.873333 60.69,231.38 C56.0233333,228.006667 52.73,224.693333 50.81,221.44 C48.8101743,217.998381 47.8352493,214.057047 48,210.08 L48,110.08 L111.33,55.08 L176.53,30.15 Z" id="Path-11" fill="#FFECF8"></path>
                            </g>
                        </g>
                    </g>
                    <g id="Group-5" transform="translate(121.598450, 60.125358)">
                        <path d="M18.4015499,120.444642 L13.6915499,84.3646421 C13.4728998,82.0380571 14.152706,79.7159823 15.5915499,77.8746421 L40.8515499,44.0746421 C42.1115499,42.4246421 43.6715499,41.7446421 45.0015499,42.2346421 L66.4015499,50.6946421 C67.4015499,51.0446421 67.9415499,52.3646421 67.9220862,54.1746421 L67.5815499,85.3046421 C67.5293411,86.9652355 67.0245046,88.5800206 66.1215499,89.9746421 L48.2915499,117.874642 C47.5914339,119.187035 46.3844586,120.155506 44.9515499,120.554642 L21.1615499,122.984642 C19.6915499,123.124642 18.6615499,122.184642 18.4015499,120.444642 Z" id="Path" fill="#410028"></path>
                        <path d="M42.4015499,135.874642 C40.7515499,137.294642 39.0815499,138.074642 37.6815499,137.984642 L6.68154988,136.654642 C3.39154988,136.524642 1.20154988,133.964642 1.08154988,129.814642 L0.00154987798,75.3146421 C-0.0663669168,69.8405505 2.10037675,64.5753634 6.00154988,60.7346421 L44.4015499,23.2146421 C47.3315499,20.3646421 50.6215499,20.0246421 53.0815499,22.2746421 L75.8515499,43.0246421 C77.4515499,44.4846421 78.1315499,47.7346421 77.7015499,51.4746421 L72.8415499,91.4746421 C72.4079057,94.8128166 71.1387059,97.9875357 69.1515499,100.704642 L44.9615499,133.134642 C44.2179245,134.14463 43.358758,135.064206 42.4015499,135.874642 L42.4015499,135.874642 Z M47.7715499,26.0046421 C47.0154728,26.3007493 46.3329812,26.7580187 45.7715499,27.3446421 L8.15154988,64.7146421 C5.71587244,67.1950254 4.36055483,70.5383819 4.38130954,74.0146421 L5.01154988,127.744642 C5.01154988,130.434642 6.44154988,132.044642 8.51154988,132.224642 L8.51154988,132.224642 L39.1715499,134.304642 C40.6015499,134.394642 42.3715499,133.254642 43.8815499,131.204642 L68.4015499,98.5546421 C69.7031802,96.7712235 70.5291408,94.685673 70.8015499,92.4946421 L75.5715499,52.0746421 C75.8515499,49.6246421 75.3815499,47.4946421 74.3415499,46.5446421 L51.2615499,26.5446421 C50.2828995,25.7445145 48.9488453,25.5342767 47.7715499,25.9946421 L47.7715499,26.0046421 Z" id="Shape" fill="#FF193C" fill-rule="nonzero"></path>
                        <path d="M83.5715499,7.34464209 L78.7415499,0.344642088 C78.4515499,-0.0853579118 78.0615499,-0.125357912 77.6615499,0.294642088 L70.6615499,6.88464209 C70.1800958,7.39032706 69.8901057,8.0481095 69.8415499,8.74464209 L68.2615499,22.4046421 C68.1573194,23.0240094 68.2817044,23.6601499 68.6115499,24.1946421 L73.9415499,30.1946421 C74.2315499,30.5246421 74.6115499,30.4846421 74.9915499,30.0546421 L81.3815499,23.3846421 C81.7958085,22.9184277 82.0544683,22.3346955 82.1215499,21.7146421 L83.8515499,9.17464209 C83.9599148,8.55042606 83.8616045,7.90789775 83.5715499,7.34464209 Z" id="Path" fill="#410028"></path>
                        <path d="M47.9415499,82.0946421 L55.1815499,77.5646421 C55.6733848,77.1906691 56.0255113,76.6624793 56.1815499,76.0646421 L59.4615499,65.3846421 C59.6749921,64.8036244 59.6749921,64.1656598 59.4615499,63.5846421 L55.7915499,56.4246421 C55.7178521,56.2145036 55.551066,56.0502922 55.3398065,55.9798723 C55.1285469,55.9094525 54.8965912,55.9407499 54.7115499,56.0646421 L47.0415499,60.0646421 C46.4637583,60.4292174 46.0483958,61.0021312 45.8815499,61.6646421 L42.4015499,73.3646421 C42.1812823,73.9903958 42.2209006,74.6783129 42.5115499,75.2746421 L46.8515499,81.9246421 C46.9639021,82.1040425 47.148594,82.2258408 47.3577433,82.2584605 C47.5668927,82.2910801 47.7799028,82.2313086 47.9415499,82.0946421 L47.9415499,82.0946421 Z" id="Path" fill="#FF193C"></path>
                        <path d="M93.0415499,22.5646421 C93.1438213,22.678843 93.1880516,22.8336488 93.1615499,22.9846421 L92.7715499,28.8846421 C92.7497276,29.0751949 92.6884237,29.2591065 92.5915499,29.4246421 L89.7915499,33.6446421 C89.6915499,33.8046421 89.5915499,33.8546421 89.5115499,33.7846421 L87.0015499,32.1846421 C86.9007544,32.0728855 86.8501569,31.924707 86.8615499,31.7746421 L87.1915499,25.7146421 C87.2104652,25.5094815 87.2754099,25.3112291 87.3815499,25.1346421 L90.3215499,20.8346421 C90.4215499,20.6646421 90.5215499,20.6246421 90.6015499,20.7046421 L93.0415499,22.5646421 Z" id="Path" fill="#FF193C"></path>
                    </g>
                </g>
                <g id="virus3" transform="translate(495.500000, 332.500000) rotate(30.000000) translate(-495.500000, -332.500000) translate(389.000000, 322.000000)">
                    <circle id="Oval" fill="#FF193C" cx="10.5" cy="10.5" r="10.5"></circle>
                    <rect id="Rectangle" fill="url(#linearGradient-11)" x="10" y="0" width="203" height="21"></rect>
                </g>
                <g id="virus2" transform="translate(557.500000, 419.500000) rotate(30.000000) translate(-557.500000, -419.500000) translate(451.000000, 409.000000)">
                    <circle id="Oval" fill="#FF193C" cx="10.5" cy="10.5" r="10.5"></circle>
                    <rect id="Rectangle" fill="url(#linearGradient-11)" x="10" y="0" width="203" height="21"></rect>
                </g>
                <g id="virus1" transform="translate(438.500000, 405.500000) rotate(30.000000) translate(-438.500000, -405.500000) translate(332.000000, 395.000000)">
                    <circle id="Oval" fill="#FF193C" cx="10.5" cy="10.5" r="10.5"></circle>
                    <rect id="Rectangle" fill="url(#linearGradient-11)" x="10" y="0" width="203" height="21"></rect>
                </g>
            </g>
        </g>
    </g>
</svg>
