<?xml version="1.0" encoding="utf-8"?>
<!-- Generator: Adobe Illustrator 23.1.1, SVG Export Plug-In . SVG Version: 6.00 Build 0)  -->
<svg version="1.1" id="Ebene_1" xmlns="http://www.w3.org/2000/svg" xmlns:xlink="http://www.w3.org/1999/xlink" x="0px" y="0px"
	 viewBox="0 0 625.2 187.4" style="enable-background:new 0 0 625.2 187.4;" xml:space="preserve">
<style type="text/css">
	.st0{fill:#410028;}
	.st1{fill-rule:evenodd;clip-rule:evenodd;fill:#410028;}
	.st2{fill:#FF193C;}
	.st3{fill-rule:evenodd;clip-rule:evenodd;fill:#FF193C;}
</style>
<title>wort-bildmarke-ly-immune-server</title>
<g>
	<path class="st0" d="M204.5,43.8v10h-8.9v-10H204.5z M204.5,69.8v60.6h-8.9V69.7L204.5,69.8z"/>
	<path class="st0" d="M220.1,69.7h8.9l-0.2,9.1l0.2,0.2c3.4-6.8,10-10.2,19.8-10.2c10.3,0,16.5,3.4,18.7,10.2h0.3
		c3.8-6.8,10.8-10.2,20.9-10.2c14.3,0,21.5,7.3,21.5,21.9v39.7h-8.9V89.9c0-5.3-1-9-2.9-10.9s-5.5-2.9-10.8-2.9
		c-7,0-11.8,1.3-14.3,4c-2.5,2.7-3.8,7.7-3.8,15.1v35.1h-8.9V90.7l-0.1-2.8c0-7.8-4.5-11.8-13.4-11.8c-12.1,0-18.2,6.6-18.2,19.8
		v34.5h-8.9V69.7z"/>
	<path class="st0" d="M327.4,69.7h8.9l-0.2,9.1l0.2,0.2c3.4-6.8,10-10.2,19.8-10.2c10.3,0,16.5,3.4,18.7,10.2h0.2
		c3.8-6.8,10.8-10.2,20.9-10.2c14.3,0,21.5,7.3,21.5,21.9v39.7h-8.9V89.9c0-5.3-1-9-2.9-10.9s-5.5-2.9-10.8-2.9
		c-7,0-11.8,1.3-14.3,4s-3.8,7.7-3.8,15.1v35.1H368V90.7l-0.1-2.8c0-7.8-4.5-11.8-13.4-11.8c-12.1,0-18.1,6.6-18.1,19.8v34.5h-8.9
		V69.7z"/>
	<path class="st0" d="M484.2,69.7v60.7h-8.9l0.6-7.9l-0.2-0.2c-3.1,6-9.7,9-19.8,9c-14.2,0-21.3-7.1-21.3-21.2V69.7h8.9v40.4
		c0,5.5,0.9,9.2,2.7,11s5.4,2.8,10.7,2.8c7,0,11.8-1.4,14.4-4.2c2.6-2.8,3.9-7.9,3.9-15.3V69.7H484.2z"/>
	<path class="st0" d="M500.7,69.7h8.6L509,78l0.2,0.2c2.7-6.2,9.4-9.3,20.2-9.3c8.7,0,14.5,1.5,17.6,4.6c3.1,3,4.6,8.9,4.6,17.5
		v39.4h-8.9v-41c0-5.2-1-8.7-3-10.5s-5.8-2.7-11.5-2.7c-12.5,0-18.7,5.9-18.7,17.7v36.5h-8.9L500.7,69.7z"/>
	<path class="st0" d="M609.9,112.1h9.1l0.1,2.2c0,6.3-1.9,10.7-5.8,13.2c-3.8,2.5-10.5,3.8-20.2,3.8c-11.2,0-18.5-2-22-6.1
		c-3.5-4.1-5.2-12.7-5.2-25.7c0-12.1,1.8-20.2,5.3-24.4s10.4-6.2,20.6-6.2c11.2,0,18.5,1.8,22,5.4c3.5,3.6,5.2,11.2,5.1,22.8v4.8
		h-43.7c0,9.6,1,15.7,3.1,18.3c2.1,2.6,6.8,3.9,14.4,3.9c7.2,0,11.8-0.6,13.9-1.9c2.1-1.2,3.2-3.9,3.2-8.1L609.9,112.1z M609.9,94.8
		l-0.1-2.8c0-6.6-1.1-10.8-3.2-12.8s-6.8-3-14-3c-7.2,0-11.9,1.2-14,3.5c-2.1,2.3-3.2,7.4-3.2,15.1L609.9,94.8z"/>
</g>
<path class="st1" d="M28.3,127.9V73.6c0-2.9,1.5-5.5,4-6.9l47-27.1c2.5-1.4,5.5-1.4,8,0l47,27.1c2.5,1.4,4,4,4,6.9v54.3
	c0,2.9-1.5,5.5-4,6.9l-47,27.1c-2.5,1.4-5.5,1.4-8,0l-47-27.1C29.8,133.4,28.3,130.8,28.3,127.9z"/>
<path class="st2" d="M71.5,187.4c-3.9,0-7.7-1.3-10.7-3.8L6.3,139.4c-4.7-3.8-7.1-9.8-6.2-15.8l11.1-69.5c0.9-6,5-11.1,10.7-13.2
	l65.8-25.4c5.7-2.2,12.1-1.2,16.9,2.7l54.5,44.2c4.7,3.8,7,9.9,6.1,15.9l-11.1,69.5c-0.9,6-5,11.1-10.7,13.2l-65.7,25.3
	C75.7,187.1,73.6,187.4,71.5,187.4z M93.9,20.4c-1.4,0-2.7,0.2-4,0.7L24.1,46.5c-3.7,1.4-6.3,4.7-6.9,8.6L6.1,124.6
	c-0.6,3.9,1,7.7,4,10.2l0,0L64.6,179c3.1,2.5,7.2,3.2,10.9,1.7l65.7-25.3c3.7-1.4,6.3-4.7,6.9-8.6l11.1-69.5
	c0.6-3.9-0.9-7.9-3.9-10.4l-54.5-44.2C98.8,21.2,96.4,20.4,93.9,20.4z"/>
<path class="st1" d="M177.2,12.7l-13.8-12c-0.8-0.7-1.8-0.9-2.8-0.5l-17.1,5.9c-1,0.3-1.7,1.1-1.9,2.1L138.2,26
	c-0.2,1,0.2,2,0.9,2.7l13.8,12c0.8,0.7,1.8,0.9,2.8,0.5l17.1-5.9c1-0.3,1.7-1.1,1.9-2.1l3.4-17.8C178.3,14.4,177.9,13.4,177.2,12.7z
	"/>
<path class="st3" d="M89.9,99.3l16.6,0.1c1,0,2-0.5,2.5-1.4l8.2-14.1c0.5-0.9,0.5-2,0-2.9l-8.3-14.2c-0.5-0.9-1.4-1.4-2.4-1.4
	l-16.6-0.1c-1,0-2,0.5-2.5,1.4l-8.2,14.1c-0.5,0.9-0.5,2,0,2.9l8.3,14.2C88,98.8,88.9,99.3,89.9,99.3z"/>
<path class="st3" d="M208.9,42.4c0.3,0.2,0.5,0.5,0.5,0.8V53c0,0.3-0.2,0.6-0.5,0.8l-8.5,4.9c-0.3,0.2-0.6,0.2-0.9,0l-8.4-4.9
	c-0.3-0.2-0.5-0.5-0.5-0.8v-9.8c0-0.3,0.2-0.6,0.5-0.8l8.5-4.9c0.3-0.2,0.6-0.2,0.9,0L208.9,42.4z"/>
</svg>
